/* XPM */
static char *images1713438654[] = {
/* columns rows colors chars-per-pixel */
"64 64 114 2 ",
"   c #BC7F29",
".  c #BE8329",
"X  c #C08529",
"o  c #C58D2A",
"O  c #CC8B2A",
"+  c #D08F2A",
"@  c #C7902C",
"#  c #CC942B",
"$  c #CE9A2D",
"%  c #D2932B",
"&  c #D19C2C",
"*  c #D99C2D",
"=  c #CEA12F",
"-  c #D5A32D",
";  c #DAA52E",
":  c #D7A82F",
">  c #DBAB2F",
",  c #DEB02F",
"<  c #DFA531",
"1  c #D4A930",
"2  c #DBAD31",
"3  c #DCB432",
"4  c #DDB934",
"5  c #E0A632",
"6  c #E4AC31",
"7  c #E2B630",
"8  c #EAB332",
"9  c #E3BB33",
"0  c #ECBD34",
"q  c #EBB73B",
"w  c #ECB93B",
"e  c #DFC036",
"r  c #E5C235",
"t  c #EBC333",
"y  c #EDCA32",
"u  c #E6C43C",
"i  c #E8C639",
"p  c #E6CA39",
"a  c #EBCD38",
"s  c #F1CD32",
"d  c #F0CC38",
"f  c #EFD137",
"g  c #EDD33A",
"h  c #EEDA3B",
"j  c #F5D334",
"k  c #F2D439",
"l  c #F3DC3B",
"z  c #F6E43D",
"x  c #F8E53C",
"c  c #F7E83F",
"v  c #F9EB3E",
"b  c #EDBE42",
"n  c #E5C545",
"m  c #EFC144",
"M  c #E5C64B",
"N  c #F0C347",
"B  c #F0C449",
"V  c #F2C84D",
"C  c #F5DE44",
"Z  c #F5DE4B",
"A  c #F3CB52",
"S  c #F5CF58",
"D  c #F6DF51",
"F  c #F6D25B",
"G  c #F7E142",
"H  c #F8E742",
"J  c #FAEE40",
"K  c #F9ED4A",
"L  c #FBF040",
"P  c #F6E051",
"I  c #F9EF54",
"U  c #F8EF5C",
"Y  c #E5CB65",
"T  c #E6CD6D",
"R  c #F5DF67",
"E  c #F8D964",
"W  c #FADE6A",
"Q  c #E7CF75",
"!  c #E8D17C",
"~  c #F1DC7B",
"^  c #F6E067",
"/  c #F8EF64",
"(  c #F5E16B",
")  c #FBE16E",
"_  c #F7EF6C",
"`  c #F8F064",
"'  c #F7F06D",
"]  c #F8F06A",
"[  c #F7E272",
"{  c #F6EF77",
"}  c #F7E47C",
"|  c #F7F070",
" . c #F6F07E",
".. c #EAD68D",
"X. c #EBD894",
"o. c #F7E382",
"O. c #F6F084",
"+. c #F5F08C",
"@. c #F8E794",
"#. c #EEDEA6",
"$. c #EEDFA9",
"%. c #F0E1A7",
"&. c #F9EBAA",
"*. c #F0E4B7",
"=. c #FAEEB9",
"-. c #F4EBCA",
";. c #FBF2CB",
":. c #F5EDD0",
">. c #FBF3D0",
",. c #F9F3DF",
"<. c #F9F5E6",
"1. c #FDF8E6",
"2. c #FCF9ED",
"3. c #FFFFFF",
/* pixels */
"3.3.3.3.3.3.3.3.3.3.3.3.3.3.3.3.3.3.3.3.3.3.3.3.3.3.3.3.3.3.3.3.3.3.3.3.3.3.3.3.3.3.3.3.3.3.3.3.3.3.3.3.3.3.3.3.3.3.3.3.3.3.3.3.",
"3.3.3.3.3.3.3.3.3.3.3.3.3.3.3.3.3.3.3.3.3.3.3.3.3.3.3.3.3.3.3.3.3.3.3.3.3.3.3.3.3.3.3.3.3.3.3.3.3.3.3.3.3.3.3.3.3.3.3.3.3.3.3.3.",
"3.3.3.3.3.3.3.3.3.3.3.3.3.3.3.3.3.3.3.3.3.3.3.3.3.3.3.3.3.3.3.3.3.3.3.3.3.3.3.3.3.3.3.3.3.3.3.3.3.3.3.3.3.3.3.3.3.3.3.3.3.3.3.3.",
"3.3.3.3.3.3.3.3.3.3.3.3.3.3.3.3.3.3.3.3.3.3.3.3.3.3.3.3.3.3.3.3.3.3.3.3.3.3.3.3.3.3.3.3.3.3.3.3.3.3.3.3.3.3.3.3.3.3.3.3.3.3.3.3.",
"3.3.3.3.3.3.3.3.3.3.3.3.3.3.3.3.3.3.3.3.3.3.3.3.3.3.3.3.3.3.3.2.2.3.3.3.3.3.3.3.3.3.3.3.3.3.3.3.3.3.3.3.3.3.3.3.3.3.3.3.3.3.3.3.",
"3.3.3.3.3.3.3.3.3.3.3.3.3.3.3.3.3.3.3.3.3.3.3.3.3.1.;.&.@.} ) _ ( ( } @.&.;.1.3.3.3.3.3.3.3.3.3.3.3.3.3.3.3.3.3.3.3.3.3.3.3.3.3.",
"3.3.3.3.3.3.3.3.3.3.3.3.3.3.3.3.3.3.3.3.3.3.,.&.[ P G x x v v v J v v x x G Z [ %.,.3.3.3.3.3.3.3.3.3.3.3.3.3.3.3.3.3.3.3.3.3.3.",
"3.3.3.3.3.3.3.3.3.3.3.3.3.3.3.3.3.3.3.3.;.} P x x v v L v v v v J L v J J L v x y n ! -.3.3.3.3.3.3.3.3.3.3.3.3.3.3.3.3.3.3.3.3.",
"3.3.3.3.3.3.3.3.3.3.3.3.3.3.3.3.3.3.>.} C x v L J J J J J c x x c c H v J L J J l j s i T -.3.3.3.3.3.3.3.3.3.3.3.3.3.3.3.3.3.3.",
"3.3.3.3.3.3.3.3.3.3.3.3.3.3.3.3.2.@.C v v v L v J z d 9 2 - * * * & ; 2 9 a z J l j j j s n X.2.3.3.3.3.3.3.3.3.3.3.3.3.3.3.3.3.",
"3.3.3.3.3.3.3.3.3.3.3.3.3.3.3.>.^ x v J v v v a 2 % + + O % % * * * * * % % * 2 9 s j j j j y Y :.3.3.3.3.3.3.3.3.3.3.3.3.3.3.3.",
"3.3.3.3.3.3.3.3.3.3.3.3.3.3.=.Z x J J v v i - O O % % ; 6 8 8 8 8 8 8 8 8 8 5 ; % @ 6 s j j j s n *.3.3.3.3.3.3.3.3.3.3.3.3.3.3.",
"3.3.3.3.3.3.3.3.3.3.3.3.3.&.C v J J J g * O + % < q N V N 8 8 8 8 8 8 8 8 8 8 8 6 # o # 9 j j j j u $.3.3.3.3.3.3.3.3.3.3.3.3.3.",
"3.3.3.3.3.3.3.3.3.3.3.3.&.C v J J H 4 # O % 5 b F W W ) W w 8 8 8 8 8 8 8 8 8 8 6 & & % # > s j j j u $.3.3.3.3.3.3.3.3.3.3.3.3.",
"3.3.3.3.3.3.3.3.3.3.3.=.G v J J l < O O * q F W W W W E B q 8 8 8 8 8 8 8 8 8 8 > & & & $ $ - s j j s u *.3.3.3.3.3.3.3.3.3.3.3.",
"3.3.3.3.3.3.3.3.3.3.>.Z J J L l < O + < N W ) [ W E B 8 8 8 8 8 8 8 8 8 8 8 8 8 > & & & & & & - y j j j n :.3.3.3.3.3.3.3.3.3.3.",
"3.3.3.3.3.3.3.3.3.2.^ v v L z - O O 6 S W [ W E B q 8 t d l z z x l k d 0 8 8 8 > & & & & & & & < y j j s Y 2.3.3.3.3.3.3.3.3.3.",
"3.3.3.3.3.3.3.3.3.@.c v J c < O % 6 S W W W A q 8 s l K U / ] ` K J J J J l t 8 ; & & & & & & & $ , j j j y X.3.3.3.3.3.3.3.3.3.",
"3.3.3.3.3.3.3.3.>.G v v J 9 O + 6 E W W E N 8 0 l K ] O.+.+.+. .I J J J J J v k > & & & & & & & & $ 7 j j j n -.3.3.3.3.3.3.3.3.",
"3.3.3.3.3.3.3.3.[ v L v a % O 5 F W W E w 8 t H ` O.+.+. ./ I J J J J J J J J J h > & & & & $ & & & - t j j s Q 2.3.3.3.3.3.3.3.",
"3.3.3.3.3.3.3.;.G v L c < O * V ) W F 8 8 t K ] +.+. .` K J v J J J J J J J J J v l > & & & & & & & $ > j j j i -.3.3.3.3.3.3.3.",
"3.3.3.3.3.3.3.} x J L i O % b ) ) F 8 8 0 H | +.+.' K v v J J J J J J J J J J J v v h - & & & & & & & & 9 j j s ! 3.3.3.3.3.3.3.",
"3.3.3.3.3.3.,.Z v L G - O < F ) E q 8 8 l ] +.+.U L v J J J J J J J J J J J J J J L v r & & & & & & & & > s j j n ,.3.3.3.3.3.3.",
"3.3.3.3.3.3.&.x J L a O % q ) E w 8 8 d I O.+.I v J J J J J J J J J J J J J J J J v v z > & & & & & & & & t j j y #.3.3.3.3.3.3.",
"3.3.3.3.3.3.[ x v v 3 O * w S w 8 8 8 x | +./ J v J J J J J J J J J J J v J J J J J J J r $ & & & & & & & > j j s T 3.3.3.3.3.3.",
"3.3.3.3.3.1.P v v c % % 6 8 8 8 8 8 t K O.{ J J J J J J J J J J J J J J J J J J J J J J l & & & & & & & & ; s j j n <.3.3.3.3.3.",
"3.3.3.3.3.;.G L L k O * 8 8 8 8 8 8 s J | I J J J J J J J J J J J J J J J J J J J J J J c : & & & & & & & & t j j i -.3.3.3.3.3.",
"3.3.3.3.3.&.x L J 9 O ; 8 8 8 8 8 8 l J J J J J J J J J J J J J J J J J J J J J J J J J v 3 # & & & & & & & 9 j j y $.3.3.3.3.3.",
"3.3.3.3.3.@.x v J 2 O 6 8 8 8 8 8 8 x J J J J J J J L L L J J J J J J L J L L L J J J J v 9 # & & & & & & $ , j j s ..3.3.3.3.3.",
"3.3.3.3.3.} v L c < % 6 8 8 8 8 8 0 x J J J J J l r 4 u l J J J J J J h 9 4 p G L L v J v r # & & & & & & & > j j y Q 3.3.3.3.3.",
"3.3.3.3.3.[ v L c * % 8 8 8 8 8 8 0 H J J J J g @ X o O $ g L J J J r . . X X = z v L v v r @ & & & & & & & ; s j j Y 3.3.3.3.3.",
"3.3.3.3.2.( v v c & * 8 8 8 8 8 8 8 x J J J J = o 6 8 8 6 i J J J z o o $ & & $ p L L v v 9 o - & & & & & & - j j s Y 3.3.3.3.3.",
"3.3.3.3.2.^ v v x & * 8 8 8 8 8 8 8 l J J J z @ 6 8 8 8 8 0 v J J h o $ & & & & 3 v J J v 2 # & & & & & & & - j j s T 2.3.3.3.3.",
"3.3.3.3.3.[ v v x & * 8 8 8 8 8 8 8 d J J J g # 8 8 8 8 8 0 J J J h @ & & & & & : c J J c $ @ & & & & & & & ; j j s T 2.3.3.3.3.",
"3.3.3.3.3.~ x v v ; * 8 8 8 8 8 8 8 t J J J h - 8 8 8 8 8 9 v J J h $ $ & & & $ 2 v L L f o $ $ & & & & & & > j j s Q 3.3.3.3.3.",
"3.3.3.3.3...s l z < % 8 8 8 8 8 8 8 0 l L J H 2 8 8 8 2 - 9 J J J c = $ & & & & 9 J J v , . $ & & & & & & & > j j s ..3.3.3.3.3.",
"3.3.3.3.3.#.y j j ; . - ; > 6 6 6 6 8 h J J L g ; - = * $ g v J J L 4 $ & & $ - z L L c & o & & & & & & & & 9 j j y #.3.3.3.3.3.",
"3.3.3.3.3.-.t j j 7   $ & & & & & * - l J J J v t - $ & 4 J J J J v z 2 & & > g L L L v 4 & & & & & & & & & y j j i -.3.3.3.3.3.",
"3.3.3.3.3.<.M j j y X # & & & & & $ > c J J J J J l g h J J L L J L J c g h c v v L v v r # & & & & & & & - s j j n <.3.3.3.3.3.",
"3.3.3.3.3.3.T s j j # o & & & & & & : c J J J J J J J J J J l h g z L v v L L v v v v v r # & & & & & & & > j j s Q 3.3.3.3.3.3.",
"3.3.3.3.3.3.#.y j j 7 X & & & & & & - l v J J J J J J J L g . 4 = $ z J J J J J J J J v > @ & & & & & & & t j j y #.3.3.3.3.3.3.",
"3.3.3.3.3.3.<.n j j s @ $ & & & & & $ 9 L L J J J J J J J 4 . r 1 # g L J J J J J v J k o @ & & & & & & - j j j n ,.3.3.3.3.3.3.",
"3.3.3.3.3.3.3.! s j j , o & & & & & & - a J L J v L J J J h 4 l g e c J J J J J v v l - . & & & & & & & 9 j j y ! 3.3.3.3.3.3.3.",
"3.3.3.3.3.3.3.-.i j j d # & & & & & & & $ 4 h c J J J J J J J J v J J J J J J v c i # . # & & & & & & > j j j i -.3.3.3.3.3.3.3.",
"3.3.3.3.3.3.3.2.Q s j j 9 # & & & & & & & # @ $ a v L J J J J J v L J J J J v > o . . # & & & & & & - t j j s Q 2.3.3.3.3.3.3.3.",
"3.3.3.3.3.3.3.3.-.n j j j - $ & & & & & & & $ @ i L J J J J J J J J J J J J c $ X # & & & & & & & & 7 j j j u :.3.3.3.3.3.3.3.3.",
"3.3.3.3.3.3.3.3.3.X.y j j s - & & & & & & & & & i v J L v J L J J J J L J v v - $ & & & & $ & & & > j j j y X.3.3.3.3.3.3.3.3.3.",
"3.3.3.3.3.3.3.3.3.<.Y s j j y - & $ & & & & & & 4 c c v v H v v J c c v H v f o $ $ & & & & & & > y j j s Y 2.3.3.3.3.3.3.3.3.3.",
"3.3.3.3.3.3.3.3.3.3.:.n j j j y > & & & & & & $ & & $ $ $ $ $ $ $ $ $ & $ & X . $ & & & & & & > s j j j n :.3.3.3.3.3.3.3.3.3.3.",
"3.3.3.3.3.3.3.3.3.3.3.*.u j j j s > & & & & & & & # o @ o o @ o o o o o o o @ & & & & & & & > d j j j u *.3.3.3.3.3.3.3.3.3.3.3.",
"3.3.3.3.3.3.3.3.3.3.3.3.$.u j j j j 9 & $ & & & & & & - & & & & = & = & & & & & & & & & - 7 j j j j i $.3.3.3.3.3.3.3.3.3.3.3.3.",
"3.3.3.3.3.3.3.3.3.3.3.3.3.$.u j j j j t > & & & & & & $ & & & & & & & & & & & & & & $ > t j j j y u $.3.3.3.3.3.3.3.3.3.3.3.3.3.",
"3.3.3.3.3.3.3.3.3.3.3.3.3.3.*.n s j j j j 9 > & $ & & & & & & & & & & & & & & $ & ; 9 j j j j y M *.3.3.3.3.3.3.3.3.3.3.3.3.3.3.",
"3.3.3.3.3.3.3.3.3.3.3.3.3.3.3.:.Y y j j j j s t , - & & & & & & & & & & & & - 6 t s j j j j y Y -.3.3.3.3.3.3.3.3.3.3.3.3.3.3.3.",
"3.3.3.3.3.3.3.3.3.3.3.3.3.3.3.3.2.X.u s j j j j j s y 7 6 > : - - > : , 9 y s j j j j j s u X.<.3.3.3.3.3.3.3.3.3.3.3.3.3.3.3.3.",
"3.3.3.3.3.3.3.3.3.3.3.3.3.3.3.3.3.3.-.Q i s j j j j j j j j j s j s s j j j j j j j s i ! -.3.3.3.3.3.3.3.3.3.3.3.3.3.3.3.3.3.3.",
"3.3.3.3.3.3.3.3.3.3.3.3.3.3.3.3.3.3.3.3.-.! n r j j j j j j j j j j j j j j j j y n ! -.3.3.3.3.3.3.3.3.3.3.3.3.3.3.3.3.3.3.3.3.",
"3.3.3.3.3.3.3.3.3.3.3.3.3.3.3.3.3.3.3.3.3.3.,.#.T n i y s s s s j s s s y t M T #.,.3.3.3.3.3.3.3.3.3.3.3.3.3.3.3.3.3.3.3.3.3.3.",
"3.3.3.3.3.3.3.3.3.3.3.3.3.3.3.3.3.3.3.3.3.3.3.3.3.<.-.#...Q Y Y Y T Q ..#.-.<.3.3.3.3.3.3.3.3.3.3.3.3.3.3.3.3.3.3.3.3.3.3.3.3.3.",
"3.3.3.3.3.3.3.3.3.3.3.3.3.3.3.3.3.3.3.3.3.3.3.3.3.3.3.3.3.3.3.3.2.3.3.3.3.3.3.3.3.3.3.3.3.3.3.3.3.3.3.3.3.3.3.3.3.3.3.3.3.3.3.3.",
"3.3.3.3.3.3.3.3.3.3.3.3.3.3.3.3.3.3.3.3.3.3.3.3.3.3.3.3.3.3.3.3.3.3.3.3.3.3.3.3.3.3.3.3.3.3.3.3.3.3.3.3.3.3.3.3.3.3.3.3.3.3.3.3.",
"3.3.3.3.3.3.3.3.3.3.3.3.3.3.3.3.3.3.3.3.3.3.3.3.3.3.3.3.3.3.3.3.3.3.3.3.3.3.3.3.3.3.3.3.3.3.3.3.3.3.3.3.3.3.3.3.3.3.3.3.3.3.3.3.",
"3.3.3.3.3.3.3.3.3.3.3.3.3.3.3.3.3.3.3.3.3.3.3.3.3.3.3.3.3.3.3.3.3.3.3.3.3.3.3.3.3.3.3.3.3.3.3.3.3.3.3.3.3.3.3.3.3.3.3.3.3.3.3.3.",
"3.3.3.3.3.3.3.3.3.3.3.3.3.3.3.3.3.3.3.3.3.3.3.3.3.3.3.3.3.3.3.3.3.3.3.3.3.3.3.3.3.3.3.3.3.3.3.3.3.3.3.3.3.3.3.3.3.3.3.3.3.3.3.3."
};
