/* XPM */
static char *images1713446096[] = {
/* columns rows colors chars-per-pixel */
"64 64 208 2 ",
"   c None",
".  c #BC7E28",
"X  c #BC8029",å
"o  c #BF8329",
"O  c #C08529",
"+  c #C28A2A",
"@  c #C58C2A",
"#  c #C58E2B",
"$  c #CC892A",
"%  c #CD8A2A",
"&  c #C88F2A",
"*  c #CE8C2A",
"=  c #C8902B",
"-  c #CB922B",
";  c #CC952B",
":  c #CD972B",
">  c #CE982B",
",  c #CA992E",
"<  c #CD9C2E",
"1  c #D1902A",
"2  c #D2922B",
"3  c #D4952B",
"4  c #D09B2C",
"5  c #D19B2C",
"6  c #D49A2D",
"7  c #D19C2C",
"8  c #D19D2C",
"9  c #D29D2C",
"0  c #D09E2D",
"q  c #D39E2D",
"w  c #D59D2E",
"e  c #D89A2C",
"r  c #DA9C2D",
"t  c #CFA12F",
"y  c #D3A02D",
"u  c #D7A12D",
"i  c #D7A32D",
"p  c #D5A42D",
"a  c #DFA32E",
"s  c #D8A52E",
"d  c #DDA72E",
"f  c #D7A92F",
"g  c #D8A82E",
"h  c #DAA82E",
"j  c #D9AB2F",
"k  c #DBAA2F",
"l  c #DBAE2F",
"z  c #DEB02F",
"x  c #DDAD30",
"c  c #DEB230",
"v  c #DBB734",
"b  c #E0A731",
"n  c #E3AB30",
"m  c #E7AF31",
"M  c #E5AD33",
"N  c #E2B630",
"B  c #EAB231",
"V  c #E9B232",
"C  c #EAB332",
"Z  c #EBB432",
"A  c #EBB732",
"S  c #EBB534",
"D  c #E0B933",
"F  c #E4B931",
"G  c #E6BD31",
"H  c #E2B934",
"J  c #E4BD34",
"K  c #ECBA33",
"L  c #EDBE34",
"P  c #ECB838",
"I  c #EDBB3B",
"U  c #EBB83D",
"Y  c #E3C034",
"T  c #E1C336",
"R  c #E6C234",
"E  c #E7C535",
"W  c #EAC133",
"Q  c #EBC332",
"!  c #EEC335",
"~  c #EFC535",
"^  c #E7CA37",
"/  c #EBC831",
"(  c #ECC931",
")  c #EEC833",
"_  c #EFC934",
"`  c #EFCE37",
"'  c #E6C43A",
"]  c #E6C43C",
"[  c #E8C639",
"{  c #EBCD38",
"}  c #F0CD30",
"|  c #F1CE30",
" . c #F2CF30",
".. c #F1CD34",
"X. c #EDD139",
"o. c #EDD439",
"O. c #EFD539",
"+. c #EDD63A",
"@. c #EED83B",
"#. c #F3D031",
"$. c #F3D132",
"%. c #F4D233",
"&. c #F6D333",
"*. c #F4D034",
"=. c #F7D534",
"-. c #F6D435",
";. c #F6D535",
":. c #F7D535",
">. c #F1D138",
",. c #F3D639",
"<. c #F1DB3B",
"1. c #F5DA3A",
"2. c #F6DD3A",
"3. c #F6DF3B",
"4. c #F2DF3C",
"5. c #F5E23D",
"6. c #F7E63E",
"7. c #F9E13A",
"8. c #F8E43B",
"9. c #F8E73D",
"0. c #F9E83A",
"q. c #F9EB3B",
"w. c #F8E93E",
"e. c #F9EA3F",
"r. c #FAEB3E",
"t. c #FAED3E",
"y. c #FAEC3F",
"u. c #FAEE3E",
"i. c #EBBB42",
"p. c #EEBE40",
"a. c #E5C541",
"s. c #E5C447",
"d. c #E6C646",
"f. c #EFC044",
"g. c #E5C64B",
"h. c #F1C549",
"j. c #F5DE4A",
"k. c #F3CB52",
"l. c #F6D159",
"z. c #F7D55E",
"x. c #F7E042",
"c. c #F8E842",
"v. c #FAED40",
"b. c #FAEE40",
"n. c #FBEE40",
"m. c #FAEF40",
"M. c #FBEF40",
"N. c #FAEF43",
"B. c #FAEE47",
"V. c #F6E04F",
"C. c #F9EC4B",
"Z. c #FBF040",
"A. c #F9EF54",
"S. c #F8EF5A",
"D. c #E5CA63",
"F. c #E6CC67",
"G. c #E6CD68",
"H. c #E6CD6D",
"J. c #E6CD6E",
"K. c #F5DF67",
"L. c #F9D964",
"P. c #FADE69",
"I. c #E7CF75",
"U. c #E8D17B",
"Y. c #E8D17C",
"T. c #E8D17E",
"R. c #F5E16B",
"E. c #FBE16D",
"W. c #F8F060",
"Q. c #F8F067",
"!. c #F8F06C",
"~. c #F7E270",
"^. c #F6E273",
"/. c #F7E375",
"(. c #F6EF77",
"). c #F7E379",
"_. c #F5E27C",
"`. c #F7E47D",
"'. c #F7F070",
"]. c #F6F07E",
"[. c #EAD68D",
"{. c #EBD892",
"}. c #EBD894",
"|. c #F7E382",
" X c #F6F082",
".X c #F5F088",
"XX c #F5F08D",
"oX c #F8E792",
"OX c #F8E796",
"+X c #EEDFA7",
"@X c #EEDFA8",
"#X c #EEDFA9",
"$X c #EEDFAA",
"%X c #F0E1A7",
"&X c #F9EBA9",
"*X c #F9EBAA",
"=X c #F9EBAB",
"-X c #F9EBAC",
";X c #F0E4B7",
":X c #FAEEB9",
">X c #F3EAC8",
",X c #F6EDC9",
"<X c #F7EFCE",
"1X c #FBF2C9",
"2X c #F5EDD0",
"3X c #F8F0D0",
"4X c #F8F1D3",
"5X c #F8F2DF",
/* pixels */
"                                                                                                                                ",
"                                                                                                                                ",
"                                                                                                                                ",
"                                                                                                                                ",
"                                                                                                                                ",
"                                                    <X-XoX_.~.R.R.~.`.oX-X4X                                                    ",
"                                              -X/.j.x.8.0.0.t.q.q.q.q.6.6.x.V./.%X5X                                            ",
"                                        1X|.j.9.q.t.b.b.b.Z.Z.b.b.Z.Z.b.b.Z.0.q...s.T.,X                                        ",
"                                    3X).j.0.t.Z.Z.b.Z.b.v.v.v.8.6.6.0.b.n.Z.Z.b.2.-.( ' I.2X                                    ",
"                                  OXj.q.u.u.Z.Z.b.5.X.J x i w 6 6 w s x J X.5.b.7.-.:.&.} a.{.                                  ",
"                              3XP.5.t.Z.u.u.8.{ x 3 % % % 1 3 6 r r r 6 3 3 6 x J ..:.:.-.%.( D.                                ",
"                            :Xj.q.b.b.b.9.E w * % 1 e a n m V C B B S V B m n a - & l ..:.-.-.} s.;X                            ",
"                          =Xx.t.b.b.b.X.i % % 3 a U h.h.f.C C B C C C C C C C S b : & : F -.:.:.$.] $X                          ",
"                        -Xx.t.b.b.6.H 1 % 2 b f.l.P.E.E.P.f.Z Z C C C C C C C C n 7 7 > - j ..:.:.$.' $X                        ",
"                      :Xx.t.b.b.5.x % % r i.l.P.E.E.E.L.h.C C C C C C C C C C C n 7 7 7 6 > p ( :.-.-.] ;X                      ",
"                      j.t.b.t.5.r $ 1 d h.L.E.E.E.l.h.B B C A A A S C B B C C C d 7 7 7 < 7 4 s ( :.-.$.g.                      ",
"                    K.0.N.b.5.u % 1 M k.P.E.E.L.h.C C ~ >.1.7.8.7.5.1.{ L V V C d 7 7 7 7 7 7 4 p ..:.:.} D.                    ",
"                  OX8.b.b.c.d $ 1 M l.E.E.P.k.P Z _ 5.C.S.Q.Q.W.C.n.n.b.v.1.~ C d 7 7 7 7 7 7 7 7 x ..:.-./ {.                  ",
"                  j.t.b.b.H % 1 M l.E.P.L.f.V L 2.C.'. XXXXX.X].A.u.b.b.b.b.0.,.k 4 7 7 7 7 7 7 7 7 N :.-.%.a.<X                ",
"                /.0.b.Z.X.1 % x l.P.E.L.I B ~ c.W. X.XXX].Q.A.C.Z.u.b.b.b.b.b.b.<.j 4 7 7 7 7 7 7 7 7 ~ :.-.} I.                ",
"              ,Xx.b.Z.6.u $ r k.E.E.l.P B ~ c.!..XXX].W.C.b.b.b.b.b.b.b.b.b.b.b.t.<.j 6 7 7 7 7 7 7 < s %.:.%.[ >X              ",
"              |.0.b.b.E $ 2 i.P.E.l.P Z L c.'.XX.X'.C.u.t.b.b.b.b.b.b.b.b.b.b.b.b.b.o.p 7 7 7 7 7 7 7 7 J :.-.} U.              ",
"              V.b.Z.8.w % x z.E.L.C B C 2.Q.XX.XS.b.b.b.t.Z.b.b.b.b.b.b.b.b.b.b.b.b.t.Y 7 7 7 7 7 7 7 7 s %.-.%.s.5X            ",
"            =X8.b.Z.{ % 3 U P.L.I Z B _ A..X.XS.b.b.b.b.b.b.b.b.b.b.b.b.b.b.b.b.b.b.b.6.j 6 7 7 7 7 7 7 7 Q :.:./ %X            ",
"            /.q.Z.b.x $ a U l.p.Z C A 5.'.XXW.b.b.b.b.b.b.b.b.b.b.b.b.b.b.b.b.b.b.b.b.b.Y 7 7 7 4 9 4 9 < c -.-.} H.            ",
"            V.t.Z.5.3 1 V C Z B B B ~ C. X(.b.b.b.b.b.b.b.b.b.b.b.b.b.b.b.b.b.b.b.b.b.Z.<.w 7 7 9 4 9 4 4 u } :.%.g.            ",
"          ,Xx.t.u.X.% 6 C C C C B B >.Z.'.A.b.b.b.b.b.b.b.b.b.b.b.b.b.b.b.b.b.b.b.b.b.b.0.f < 7 4 9 4 9 4 9 Q :.&.[ >X          ",
"          *X8.b.Z.J % a C C C C C Z 2.b.Z.b.b.b.b.b.b.b.b.b.b.b.b.b.b.b.b.b.b.b.b.b.b.b.b.c : 7 9 4 9 4 9 4 F :.:.( %X          ",
"          oX9.Z.n.x % n Z B C C C A 8.m.m.m.b.b.Z.Z.Z.Z.Z.b.b.b.b.b.Z.u.Z.Z.Z.Z.b.b.b.b.u.J : 7 4 9 4 9 7 4 z :.:.} [.          ",
"          _.q.b.v.s 1 m B Z C C C A 6.m.m.m.b.Z.@.T v T 5.b.b.b.b.b.Z.@.T v ^ 8.b.b.b.b.n.R - 4 9 4 9 4 6 4 k :.:.} T.          ",
"          ~.q.Z.8.w 3 B C C C C C K c.m.m.t.Z.@.# o # - < +.b.b.b.b.T O X o + t 5.Z.b.n.n.W - 4 4 9 4 9 9 4 j ..-.} H.          ",
"          R.q.b.c.6 e B C C C C C A 5.Z.m.c.9.t # V C C M W b.b.Z.5.@ @ < 7 6 < Y b.b.n.Z.v & 7 9 4 9 4 4 4 s %.&.%.G.          ",
"          R.q.n.c.6 r C C C Z B B B 2.b.b.b.<.- n Z V B V L 0.b.b.o.+ > 7 7 7 < c q.m.m.c.f - < 7 7 7 7 7 4 s  .:. .F.          ",
"          E.q.n.6.w r C C C B Z Z B >.b.b.b.@.: B B S S B L v.b.Z.@.- 7 7 7 7 4 f c.m.m.8.> - 7 7 7 7 7 7 4 s %.-.%.J.          ",
"          _.9.y.0.s r C C C B B B B ~ b.b.Z.<.7 B V V V V W b.b.Z.<.< 7 7 7 7 4 x q.b.b.,.# : 7 7 7 7 7 7 4 x  .-.} T.          ",
"          [.} 1.7.f 3 V C C B Z C C Z 5.b.b.6.c V V m b i J b.b.b.6.y < 7 7 7 4 J b.b.v.z o < 7 7 7 7 7 < 6 x -.-.} [.          ",
"          #X( :.:.s o u j d n n n M V ,.Z.b.b.X.d i w 7 7 X.n.b.b.b.F > 7 7 4 p 5.q.m.6.7 & 7 7 7 7 7 7 7 4 F :.:.( %X          ",
"          >X[ &.:.N . < 7 7 4 4 7 7 p 5.b.b.b.b.^ p 7 7 v m.b.b.b.b.5.l 7 7 j o.b.b.m.m.F > 7 7 7 7 7 7 7 7 Q :.:.[ >X          ",
"            g.-.:./ O - 7 7 7 7 7 < x 9.b.b.b.b.Z.<.X.o.9.Z.b.Z.Z.b.b.6.X.o.5.t.b.b.b.b.E ; 7 7 7 7 7 7 7 i } :.%.g.            ",
"            J. .-.:.: @ 7 7 7 7 7 > f c.b.b.b.b.Z.Z.Z.Z.b.b.<.@.+.5.Z.b.Z.n.b.b.b.b.b.Z.Y = 7 7 7 7 7 7 4 z :.:.} J.            ",
"            %XE :.:.c O 7 7 7 7 7 7 y <.u.b.b.b.b.b.b.b.n.o.+ v t < 5.b.t.b.b.b.b.b.b.t.j @ 7 7 7 7 7 7 w W :.:./ %X            ",
"              s.%.:...& : 7 7 7 7 7 4 Y Z.Z.b.b.b.b.b.b.Z.v o E f ; +.b.c.m.b.b.b.b.b.,.@ - 6 < 7 7 7 7 j  .-.%.s.4X            ",
"              T.} :.:.l @ 7 7 7 7 7 7 u { b.b.b.b.b.b.b.Z.o.H <.X.Y 6.b.m.m.m.Z.Z.b.2.y O 4 7 7 7 7 7 7 F :.-.} U.              ",
"              ,X] %.:...; : 7 7 7 7 7 7 < v <.v.b.b.b.b.Z.b.Z.Z.Z.b.b.b.m.m.m.9.2.E ; X : 7 7 7 7 7 7 s >.:.-.] >X              ",
"                I.} :.:.F - 7 7 7 7 7 7 4 - - < ^ u.n.b.b.b.b.b.b.b.b.b.b.b.9.z @ X o : 4 4 7 7 7 7 9 / :.-.} I.                ",
"                2Xa.$.:.-.j : 7 7 7 7 7 4 7 4 & ^ Z.n.n.b.b.b.b.b.b.b.b.b.b.9.< @ ; 4 7 7 7 7 7 7 7 N -.-.%.a.3X                ",
"                  }./ :.:.} u > 7 7 7 7 7 7 4 4 ^ u.b.b.b.b.b.b.b.b.b.Z.b.Z.c.y < 7 7 7 7 7 7 7 6 x  .-.:./ }.                  ",
"                    D._ -.:...i 4 7 7 7 7 7 7 4 v 6.c.b.0.c.b.0.9.m.c.9.9.q.` # : 4 7 7 7 7 7 4 s ..-.-.} D.                    ",
"                    3Xs.$.:.:._ x 6 < 7 7 7 7 7 7 7 < < < < < < < < < < < < + O 4 7 7 7 7 4 < x ..:.-.$.s.<X                    ",
"                      ;X] %.:.:...x 4 4 7 7 7 7 7 4 @ @ @ @ @ @ @ @ @ @ @ @ @ > 7 7 7 7 7 6 k } :.-.>.] ;X                      ",
"                        $X] $.:.:.} N w 4 4 4 7 7 7 7 7 7 y 7 7 7 7 y 7 7 7 7 7 7 7 7 4 w N %.:.:.%.] +X                        ",
"                          $X] $.-.-.:.Q j 4 4 7 7 7 7 7 7 7 7 7 7 7 7 7 7 7 7 7 7 4 4 f Q :.:.&.%.' $X                          ",
"                            ;Xs.} :.-.:.%.J j 7 7 7 < 7 7 7 7 7 7 7 7 7 7 7 7 4 7 j F -.:.:.:.} s.;X                            ",
"                              2XD.( %.-.-.:...Q z p 7 6 4 7 6 7 7 7 < 7 6 7 p z Q  .-.-.:.%.E D.2X                              ",
"                                  }.a.} &.-.:.:.:.} Q F z j s s s i k z F Q ..-.:.-.-.%.} a.}.                                  ",
"                                    <XI.' } &.&.:.:.:.:.:.:.%.....-.%.&.:.:.:.-.:.%.} ' I.2X                                    ",
"                                        ,XT.s.( #.&.%.:.:.:.-.-.:.:.:.:.:.:.%. ./ s.T.,X                                        ",
"                                              %XJ.g.[ ( } } } %.%. .} } ( [ g.J.+X5X                                            ",
"                                                    ,X+X{.U.H.G.F.G.U.[.%X>X                                                    ",
"                                                                                                                                ",
"                                                                                                                                ",
"                                                                                                                                ",
"                                                                                                                                ",
"                                                                                                                                "
};
