/* XPM */
static char *_736f49404504a5c9eae89cefc4f2e1drib83r154wmXD4QI[] = {
/* columns rows colors chars-per-pixel */
"57 64 253 2 ",
"   c None",
".  c #030301",
"X  c #0C0100",
"o  c #0C0C0B",
"O  c #060B05",
"+  c #130100",
"@  c #1B0201",
"#  c #170B01",
"$  c #13140E",
"%  c #1B1509",
"&  c #130E13",
"*  c #0E1715",
"=  c #151514",
"-  c #1A1515",
";  c #151914",
":  c #1A1A15",
">  c #15151A",
",  c #1A151B",
"<  c #15191A",
"1  c #1A1A1B",
"2  c #0E0E13",
"3  c #260900",
"4  c #371800",
"5  c #241917",
"6  c #24140A",
"7  c #392300",
"8  c #272318",
"9  c #372A1A",
"0  c #1A1721",
"q  c #221823",
"w  c #252626",
"e  c #322B28",
"r  c #332F2C",
"t  c #1C211E",
"y  c #5A2E08",
"u  c #5C320B",
"i  c #593204",
"p  c #593719",
"a  c #482E06",
"s  c #642E06",
"d  c #633406",
"f  c #723D0D",
"g  c #733800",
"h  c #653A15",
"j  c #733E12",
"k  c #74440A",
"l  c #6A4317",
"z  c #754112",
"x  c #7B4D1D",
"c  c #77481A",
"v  c #714D13",
"b  c #564936",
"n  c #65462D",
"m  c #69462C",
"M  c #65482B",
"N  c #654325",
"B  c #784C22",
"V  c #765326",
"C  c #745438",
"Z  c #674732",
"A  c #69511E",
"S  c #705946",
"D  c #756E6C",
"F  c #60605E",
"G  c #8D4E0B",
"H  c #874D06",
"J  c #8C520C",
"K  c #895508",
"L  c #92550B",
"P  c #925809",
"I  c #8B4E14",
"U  c #8C5413",
"Y  c #8C551B",
"T  c #895717",
"R  c #925414",
"E  c #955A18",
"W  c #904D16",
"Q  c #9A6212",
"!  c #996815",
"~  c #93630E",
"^  c #AB6C0C",
"/  c #AA680A",
"(  c #A9760A",
")  c #B5720A",
"_  c #B37B0C",
"`  c #B87408",
"'  c #A56B14",
"]  c #AB6C12",
"[  c #A46C1A",
"{  c #A76919",
"}  c #A87A15",
"|  c #B47B13",
" . c #BE7C15",
".. c #BB7D1B",
"X. c #B47616",
"o. c #B76E0C",
"O. c #8C5523",
"+. c #895A25",
"@. c #885828",
"#. c #935C24",
"$. c #935A27",
"%. c #8A5E34",
"&. c #854F20",
"*. c #966829",
"=. c #9C772D",
"-. c #8A6236",
";. c #8A623B",
":. c #946934",
">. c #976834",
",. c #9D7532",
"<. c #9E7933",
"1. c #9B753B",
"2. c #86682E",
"3. c #A97727",
"4. c #B57C24",
"5. c #A47637",
"6. c #A86D32",
"7. c #C17B15",
"8. c #C17B1C",
"9. c #C37C23",
"0. c #8B6749",
"q. c #97734E",
"w. c #A87844",
"e. c #8C7E75",
"r. c #887D6B",
"t. c #BC8314",
"y. c #B5841C",
"u. c #BC831C",
"i. c #B98618",
"p. c #AD8210",
"a. c #A9862C",
"s. c #B38324",
"d. c #BC8222",
"f. c #BD8B23",
"g. c #BC842B",
"h. c #BC8B2C",
"j. c #B48829",
"k. c #B78A35",
"l. c #B58B30",
"z. c #C4851D",
"x. c #C38819",
"c. c #C18522",
"v. c #C58A23",
"b. c #CC8C2A",
"n. c #C78928",
"m. c #D28B2A",
"M. c #C49224",
"N. c #CB9325",
"B. c #C2922B",
"V. c #CB952B",
"C. c #D5982C",
"Z. c #C58D36",
"A. c #C99537",
"S. c #D69A35",
"D. c #D58E30",
"F. c #E19C2C",
"G. c #DBA134",
"H. c #D5A33C",
"J. c #DBA43C",
"K. c #D7A838",
"L. c #D5A330",
"P. c #E2A73C",
"I. c #E4B13F",
"U. c #A78846",
"Y. c #AE9154",
"T. c #BB9557",
"R. c #B7904B",
"E. c #8A826C",
"W. c #8A8466",
"Q. c #8B8374",
"!. c #938575",
"~. c #BA9D66",
"^. c #A78C7D",
"/. c #AC9673",
"(. c #A59567",
"). c #BCA565",
"_. c #9E8A55",
"`. c #D49E46",
"'. c #C99C58",
"]. c #CF9D4E",
"[. c #DEAC43",
"{. c #DCAC4A",
"}. c #D8A446",
"|. c #DDB249",
" X c #CAA35C",
".X c #DCAC54",
"XX c #D8AA57",
"oX c #DBB357",
"OX c #C9A245",
"+X c #E4AD43",
"@X c #E3AC4B",
"#X c #EAAD4C",
"$X c #E8A545",
"%X c #E4B245",
"&X c #E4B34C",
"*X c #EAB34C",
"=X c #EBB94D",
"-X c #E8B448",
";X c #E3AC52",
":X c #E9AD53",
">X c #E5AB58",
",X c #E4B453",
"<X c #EBB454",
"1X c #EABB55",
"2X c #E4B45A",
"3X c #EBB35B",
"4X c #E4BA5C",
"5X c #ECBC5C",
"6X c #E7B853",
"7X c #F2BB54",
"8X c #F4BC5C",
"9X c #F4B757",
"0X c #F2B64F",
"qX c #C5A466",
"wX c #D9B565",
"eX c #D5B475",
"rX c #CCAA6D",
"tX c #E8BA64",
"yX c #F6BD63",
"uX c #C79D63",
"iX c #F3C35D",
"pX c #FFC15A",
"aX c #EAC159",
"sX c #EEC467",
"dX c #F6C668",
"fX c #E8C176",
"gX c #F9CC73",
"hX c #FED477",
"jX c #FFD56F",
"kX c #DAC16F",
"lX c #9C8C85",
"zX c #978C84",
"xX c #9E9289",
"cX c #8B8686",
"vX c #B5A795",
"bX c #B3B5B6",
"nX c #A19483",
"mX c #C2AC92",
"MX c #CEBBAC",
"NX c #D6CBB6",
"BX c #C6BFC6",
"VX c #C7C8C8",
"CX c #D8CEC6",
"ZX c #D8D3C8",
"AX c #CED2DB",
"SX c #D8D8D7",
"DX c #D4C9D7",
"FX c #E7D8C8",
"GX c #E4D5DA",
"HX c #DAD4E2",
"JX c #E8D5E4",
"KX c #EFEDF0",
"LX c #E6E2DF",
/* pixels */
"                                                                                                                  ",
"                                                                                                                  ",
"                                                                                                                  ",
"                                                                                                                  ",
"                                                    l -.1.1.+.k                                                   ",
"                                                c %.>.*.5.5.6.6.+.l                                               ",
"                                          h x +.>.Y I U Y $.6.w.w.w.%.h h                                         ",
"                                        V :.>.#.I U R R U I O.$.>.1.w.w.-.c N                                     ",
"                                    x :.>.+.T T Y I E U R G U U I Y >.5.5.w.-.B p                                 ",
"                                  +.*.T I E E H T T R E 3.3.Q K J H U E *.5.5.w.%.p                               ",
"                                  O.O.Y T K P ~ ~ 4.k.].oX.XZ.4.' Q L J U Y *.1.5.v                               ",
"                                O.I I U E Q ] d.S.@XyXdXhXhXgXdX}.A.4.[ Q U T T 5.5.k                             ",
"                              @.T U Q ] c.S.#X8XdX8X<X@X{.oXsXdXhXjXtX.XZ.3.{ L E 5.*.h                           ",
"                            &.Y K P X.+X8X7X7X7X@X}.S.@X<X,X{.A.&XiXgXhXhXsX}.{ H { w.-.p                         ",
"                          c Y J P ' S.1X-XK.V.y.} y.( J.<X*Xu.( | ..f.}.4XjXsXk.Q R 6.w.V                         ",
"                          +.U L ' ..+X=Xf.} y.B.{.&X| H.&X-Xx.x.*X}.f.} } OXgX4X3.L T w.q.p                       ",
"                        @.Y U P X.J.=XB.} 6X5X8X,X6Xp.K.|.6Xt.x.iXdXdXiXS.' oXhX`.[ J #.w.-.                      ",
"                      x I E L [ V.=XH.( H.5X;X@X<X{.p.L.|.6Xt.t.,X.X6X,XgXA.} sXgXg.! U *.5.                      ",
"                    c Y Y U Q g.@X=X( M.1X@X:X:X:X@Xt.L.,X3Xn...5X}.1X{.3XdXp.j.hX2X3.~ Y w.5.                    ",
"                  h @.T E L 4.}.7Xy.i.%X&X<X@X9X<X#X_ K.3X;X9.b.@X1X&X@X@XdXaX} OXhX}.! G #.6.:.                  ",
"                p B Y U L { S.7XV.( &X6X[.&X+X+X%X%X( H.5XyXu.u.1X}.2X<X-X+XsXOX} 5XgXg.{ G *.w.                  ",
"                p c Y L Q 4.+XG.| S.,X@X&X&X=X&X,X4Xl.R.T.'.3.h.tX.XoX,XI.-X5XdXB.y.dX8X4.E T :.w.                ",
"              n h j E L ] z.P.t.v.@X-X[.&X6X.XtXeX2.4 @ @ @ 3 a w.fXoX|.-X-X{.2XyX} H.jXd.! x %.w.                ",
"              Z u c R L / v.C._ S.<X-X+X6X}.fX~.4 + 6 e r r 8 # @ h wXoX&X&X,XoXdXZ.f.iXB.3.q.q.:.                ",
"              n u z R H ^ v.L.( S.:X*X%X|.oX~.3 # 5 8 t < t w r 9 + i kXoX6X,X;X8Xv.f.iXs.T.MX^.-.                ",
"              n u f E L ^ z.G._ S.<XI.I.[.wXa + - , ; ; * * * ; r 9 X V tX,X.X,X*Xv.f.1Xj.eXFXlX-.                ",
"              n u f E L ^ u.G._ V.0X+X+XsXU.+ 5 , < $ $ ; < * * = r 5 6 wX,X3X<X0Xz.f.tXa.).CXzX;.                ",
"              n u f Y L ^ z.G._ V.-X*X{.fXi + q , < ; ; ; < < < > 1 r X =.dX;X@X-Xx.V.sXa.qXZXxX;.                ",
"              M u f Y G ] v.J._ C.G.}.`.'.4 @ , = = = - - - - < > > w # v >X`.J.P.t.M.aXk.qXCXzX;.                ",
"              M u z Y G ] c.S.| _ t.X.4.5.3 + > < ; = = , , - - > 2 w # i j.X._ t.( f.1Xk.qXCXxX;.                ",
"              M u z Y G ] u.S.b.z.N.n.g.k.3 + = < * = ; < : - , 0 & : # i `.Z.b.t.N.[.5Xs.qXFXlX-.                ",
"              n i z Y G X.z.+X-X&X{.tXwXeXa X o * * < ; = $ = , > , - X x A.Z.A.C.N.J.1Xs. XNXlX-.                ",
"              m y k Y L ^ t.[.2XoXeX~./.vXb . $ O = ; = : $ = - , & , + *.h.k.g.n.) M.aXa.qXNXlX-.                ",
"              m y k Y J ^ u.@XwX).(.vXCXGXbXo . = O < = $ : = - - 5 @ p gXiX5XdXyXb.M.1Xa.).NX!.%.                ",
"              m y z Y J ] c.;XrX/.MXJXJXHXKXxX. o < > * ; ; : % % X 3 qXoX|.&X{.0Xx.i.1Xk.Y.mX^.%.                ",
"              m u z Y U ' c..XuXmXGXHXHXDXSXKXcX. o 0 1 < o = % # 6 U.wX|.%X1X&XI.x.M.iXl.*.0.0.$.                ",
"              n u z O.U { g.XXT.NXCXDXDXSXZXVXKXF o < = = 1 , $ X _.wX|.6X|.oXoX=XM.B.8Xj.~ x c $.                ",
"              n u j O.Y { g.].T.mXLXSXZXZXSXZXSXr . : ; ; = > 1 X ;.sXK.&X,X.X2X%Xi.c.9Xh.! T Y #.x               ",
"              n u j O.Y { g.XXT.vXbXHXAXAXSXSXbX. ; $ $ : = 0 q + p tX[.;X2X3X@X=Xi.b.8Xh.~ G W #.x               ",
"              M d f O.T ' g..XT.nXVXVXAXHXAXKXD . ; = ; = , > q r + '.2X3X;X3X*X=Xi.v.8Xh.! R W #.                ",
"              M y k O.J ] d.{. X/.vXMXBXVXDXVXw o = = = > , - = r X :.gX2X,X<X#X7Xu.v.pXf.P R I #.                ",
"              M u k Y J ^ u.@X.X~.(./.vXvXvXD . $ - , < > , = $ w # u rX}.}.+XP.+Xz.N.7Xh.~ Y &.$.                ",
"              M d z Y J ^  .+X,X.XXX].U.Y.mXb X 5 , , , < < = = : 8 @ 1.h.u.z.8.c._ z.=XB.~ x @.$.                ",
"              M u z Y J ^ t.+X=X@X*X[.|.oXeX4 + 5 > - < < = = ; $ e + l h._  . ...u.S.7XB.*.q.0.%.                ",
"              n y z O.G ^ x.+XJ.#X$XK.|.oXU.@ 5 , > = ; ; = = < = 8 % 7 XXK.P.P.G.K.-X-Xs.T.MX^.%.                ",
"              n u z $.G ^ x.G.v.X.X.p.( a.i + 5 , < < < < < < , - , r + ! } ( | | ( V.=Xj.eXFXlX%.                ",
"              Z h j O.W ^ x.S._ }.;X5XtXeX7 # $ o 2 2 * 2 2 & & , 2 w X 2.gX4X6X4Xh.h.5Xs.qXCXlX;.x               ",
"              n u f O.R ] z.G._ H.4X4XfX~.+ + X X . X . X X + + X X # X i sX2X5XsXh.h.yXs. XCXxX;.B               ",
"              M u j O.U ' c.S._ A.&XoXoXR.4 4 4 4 7 3 4 4 4 3 4 4 4 4 4 k tX,X{.6Xf.n.7Xs.qXFXlX;.B               ",
"              M u j O.U ' c.S._ V.&X|.,XtXOX X'. X'.*.R. X X6.*. X X'.].].tX{.&X=Xv.b.7Xj.qXCXlX;.B C             ",
"              M y f Y J ] z.C.` S.*X+X@X@X,X.X>X.X.X4.}.,X,Xs.j.oXoX>XtX3X;X&X-X*Xv.n.1Xj.).NXxX;.B C             ",
"              M u f $.J ] z.F.` C.#X*X<X*X<X@X<X<X,X} H.*X*Xi.f.,X2X>X>X:X@X=X[.=Xf.n.5Xa.).CXxX-.x C             ",
"              m s j $.G ] z.F.` D.<X#X@X#X:X:X@X<X@X| S.7X-Xt.i.-X{.&X#X<X@X%X%X6Xy.B.5Xa.).NX!.-.x C             ",
"              m u j O.I ' c.C.` D.9X#X#X<X*X7X&X-X+Xu.H.=X+Xu.z.*X+X=X#X*X@X%X%X1Xy.h.4Xa.).NXnX-.x C             ",
"              n u z @.U ' f.L.` C.+X[.+X-XJ.[.[.%XJ.p.L.*X+Xu.| #X$X$XP.$X#X-X+X=Xf.Z.yXk.Y.vX^.%.x C             ",
"              M u l @.U ' f.S.` z.C.v.N.N.V.M.N.N.V._ J.=X*Xc.u.b.m.m.D.D.b.b.N.C...n.yXk.,.q.0.%.c C             ",
"              m h s f g E n.S.` o.) ) ) ) ` ` ` ) ) o.S.$X$X9.^ ) ) o.) o.o.) ) ) / D.:XZ.k i y z h S             ",
"              N h s s s E c.m.o.7.7.7.7.7.7. . .7. . .b.m.m.9.9. . .7.7.8.8... . . .b.S.n.H s d h l S             ",
"              M i d i d ! s.d...d.d.d.u.u.u.u.u...u.u.u.....4.d.d.d.u.d.g.g.d.u.u.d.g.g.4.H d d i p S e.          ",
"                      V :.<.=.5.<.<.<.<.<.<.<.=.=.=.5.=.5.<.<.<.<.<.=.<.1.1.<.=.=.5.5.,.5.2.V C C S D cX          ",
"                                  e.e.Q.e.e.e.Q.Q.e.Q.r.Q.E.!.E.E.E.W.W.Q.Q.E.W.W.W.E.r.Q.Q.Q.Q.Q.e.e.            ",
"                                                                                                                  ",
"                                                                                                                  ",
"                                                                                                                  "
};
