/* XPM */
static char *_fcf2e2dbff540efb49bdf3f553206b0khQfUux1Zya9ka4w[] = {
/* columns rows colors chars-per-pixel */
"60 64 249 2 ",
"   c None",
".  c #040201",
"X  c #0C0200",
"o  c #060B03",
"O  c #0A0C04",
"+  c #0C0D0D",
"@  c #07080A",
"#  c #120100",
"$  c #140B0A",
"%  c #1A0904",
"&  c #0C100B",
"*  c #161403",
"=  c #1C1105",
"-  c #16150C",
";  c #1A140C",
":  c #14180F",
">  c #18190D",
",  c #070D11",
"<  c #0D0C13",
"1  c #130D12",
"2  c #0D1314",
"3  c #0F1816",
"4  c #0E181C",
"5  c #0E171C",
"6  c #161616",
"7  c #191513",
"8  c #131914",
"9  c #191915",
"0  c #151619",
"q  c #1A141A",
"w  c #13191B",
"e  c #1A1A1B",
"r  c #210500",
"t  c #280E00",
"y  c #2C1500",
"u  c #281800",
"i  c #341600",
"p  c #391600",
"a  c #331900",
"s  c #3A1D04",
"d  c #311E0F",
"f  c #2D1A18",
"g  c #3C2201",
"h  c #3A2606",
"j  c #392215",
"k  c #393218",
"l  c #141721",
"z  c #1A1223",
"x  c #0E1720",
"c  c #401D00",
"v  c #482706",
"b  c #5C340B",
"n  c #5D3C0D",
"m  c #553309",
"M  c #5D3A14",
"N  c #5A3615",
"B  c #5E2A03",
"V  c #672D03",
"C  c #663403",
"Z  c #6B3405",
"A  c #63340A",
"S  c #69340A",
"D  c #683B07",
"F  c #763707",
"G  c #633C14",
"H  c #6A3E16",
"J  c #653E1B",
"K  c #6A3E19",
"L  c #653712",
"P  c #723D19",
"I  c #533B26",
"U  c #663F20",
"Y  c #5D4417",
"T  c #6B430A",
"R  c #764809",
"E  c #6B4214",
"W  c #66401B",
"Q  c #6B421A",
"!  c #684518",
"~  c #754515",
"^  c #7A4615",
"/  c #744A14",
"(  c #72431A",
")  c #744A1B",
"_  c #7B4B1C",
"`  c #7A4A16",
"'  c #795216",
"]  c #4C452D",
"[  c #4C4536",
"{  c #4C4837",
"}  c #524938",
"|  c #584A34",
" . c #674524",
".. c #764A23",
"X. c #795225",
"o. c #694F37",
"O. c #4F4B40",
"+. c #824E1B",
"@. c #854E17",
"#. c #855315",
"$. c #8A5215",
"%. c #84541B",
"&. c #8A541C",
"*. c #8C591E",
"=. c #92561D",
"-. c #925B1B",
";. c #844B0A",
":. c #89621D",
">. c #AC7303",
",. c #AB740C",
"<. c #AC7B0C",
"1. c #A67309",
"2. c #B3790C",
"3. c #B47608",
"4. c #AA741C",
"5. c #A77716",
"6. c #B57D13",
"7. c #B67C17",
"8. c #A96B0F",
"9. c #864D23",
"0. c #855324",
"q. c #8A5323",
"w. c #8D5924",
"e. c #86572A",
"r. c #915D24",
"t. c #94592A",
"y. c #8E5E36",
"u. c #97652B",
"i. c #9B7925",
"p. c #9D732D",
"a. c #997626",
"s. c #9C6A34",
"d. c #9B6D3A",
"f. c #946734",
"g. c #987736",
"h. c #8C6734",
"j. c #A56A28",
"k. c #A87927",
"l. c #B17A28",
"z. c #A36B35",
"x. c #A47334",
"c. c #A4743B",
"v. c #AA753C",
"b. c #A77938",
"n. c #B17237",
"m. c #C37B17",
"M. c #987A48",
"N. c #8F774C",
"B. c #A87546",
"V. c #AE7C4F",
"C. c #B68214",
"Z. c #BB8514",
"A. c #BB841A",
"S. c #BE891D",
"D. c #B78419",
"F. c #BA810D",
"G. c #AB862A",
"H. c #B2842D",
"J. c #B3892D",
"K. c #B98622",
"L. c #B58631",
"P. c #B78A32",
"I. c #B78F2F",
"U. c #C4851C",
"Y. c #C3891C",
"T. c #C78917",
"R. c #C6860C",
"E. c #CA8D23",
"W. c #C48C27",
"Q. c #D18E27",
"!. c #CC9225",
"~. c #CB932B",
"^. c #C89628",
"/. c #D39B2D",
"(. c #D59629",
"). c #C49233",
"_. c #CB9637",
"`. c #D39E32",
"'. c #D89C35",
"]. c #C38E33",
"[. c #E29D38",
"{. c #D6A234",
"}. c #D6A33A",
"|. c #DAA43B",
" X c #DCA93A",
".X c #DAA536",
"XX c #D3A334",
"oX c #E3A93D",
"OX c #9F814F",
"+X c #AB875B",
"@X c #B0914F",
"#X c #A98E68",
"$X c #AE9569",
"%X c #B59C6C",
"&X c #B8996A",
"*X c #BA9D74",
"=X c #B49978",
"-X c #B6A07A",
";X c #BAA369",
":X c #D19E45",
">X c #C39C50",
",X c #DDA544",
"<X c #D9AA47",
"1X c #CBA357",
"2X c #D6A857",
"3X c #DBB255",
"4X c #E4AD43",
"5X c #E3AD4B",
"6X c #E7AA48",
"7X c #E5B244",
"8X c #E9B346",
"9X c #E7B34B",
"0X c #EBB44B",
"qX c #EEBB4E",
"wX c #E1B84F",
"eX c #F2BB4E",
"rX c #F0B64C",
"tX c #E7AE51",
"yX c #E7B554",
"uX c #EBB452",
"iX c #EAB55A",
"pX c #E9B957",
"aX c #F3BB53",
"sX c #F4B853",
"dX c #C49F6E",
"fX c #D2AC6B",
"gX c #EEBD61",
"hX c #F6C258",
"jX c #F7C769",
"kX c #EBC364",
"lX c #B9A68D",
"zX c #B4AB98",
"xX c #AFA389",
"cX c #AB9A8A",
"vX c #CDAD8B",
"bX c #CAB9B2",
"nX c #C7B6A9",
"mX c #CAC9BC",
"MX c #C8D7C9",
"NX c #D0D4CC",
"BX c #CCD9D4",
"VX c #D3DDD6",
"CX c #D1D0DE",
"ZX c #DBCECA",
"AX c #E6D8D8",
"SX c #DAE1CB",
"DX c #D4D2E2",
"FX c #EBDCE8",
"GX c #E2E6D7",
/* pixels */
"                                                                                                                        ",
"                                              | I o.                                                                    ",
"                                          G E e.f.) b W                                                                 ",
"                                      W ( w.s.x.v.v.z.e.K M                                                             ",
"                                  G E e.d.u.=.&.z.x.v.c.d.y.) n                                                         ",
"                              G ) t.d.f.%.@.$.=.;.=.u.x.v.c.s.h.( M                                                     ",
"                          b ~ s.s.w.%.&.*.&.$.$.&.$.#.*.u.c.v.B.B.f./ n                                                 ",
"                      N X.d.s.r.&.&.&.&.&.*.&.%.@.%.&.*.&.%.u.c.v.v.c.f...J                                             ",
"                    M y.s.w.&.*.&.=.=.&.0.0.) E E ) _ @.%.&.&.&.u.j.j.c.B.y.J                 g.i.J.p.g.M.              ",
"                  G _ &.&.r.+.w.w.&.+._ ..J m g t s m E ) +.%.&.#.#.-.j.B.B.0.W             g.G.<. XyX3Xp.              ",
"                 .E *.&.*.+.0.0.^ ~ H N h t # X X X # t g m H ~ ' ' $.$.t.B.c./  .          G.}.Z.Y.hXjX>Xg.            ",
"                A w.$.=.w.) ..M m c r # X . . . . . . X X # y v m n ` ^ q.z.B.u.n         p.<XqX.X>.~.iXjX@XM.          ",
"              G %.$.&.#.~ G v t X X X X . . . + 6 @ . . X X . . # y v b 9.q.u.b.:.n     g.J.9X4XeX~.7.5XkX3Xg.          ",
"            J ( w.$.r.` J a # X o . . . + 1 8 2 6 w 0 1 @ . . @ . X # i P 9.*.b.b./  .  k.~.Y.!.E.`.7.5XyXkXi.          ",
"            L 0.@.*.%.E v # X @ . @ 2 6 6 0 9 9 7 0 0 w w 0 < @ @ . X % v _ ` r.c.d.( %.k.S.>.R.>.A.2. XuXyXG.          ",
"          L _ r.*.@.) M # X $ + 0 9 8 6 6 0 7 7 6 7 w 6 6 w e w 2 < 1 X r M ) %.s.B.t.;.4.6.T.R.T.U.>.'.uXpXI.a.        ",
"        L _ %.&.w._ W y . > 9 6 0 0 0 0 0 0 0 0 0 0 0 0 0 0 0 0 0 e w $ X y ! _ %.z.n.j.5.E.(.F.E.'.1.~.iXiX_.a.        ",
"       .~ %.#.&.9...v X O 8 6 0 0 0 0 0 0 0 0 0 0 0 0 0 0 0 0 6 > - 6 0 O # h ) %.r.n.j.5././.C.W.|.,.].iXiX}.a.        ",
"      G 0.%.*.#.) N % X : 8 6 w 0 0 0 0 0 0 0 0 0 0 0 0 0 0 0 6 > - 0 e 6 X % M ) @.j.l.,.oX~.C.S.4X,.K.iXiX<Xi.        ",
"    M X.q.@.r./ H y X $ 8 8 w w 0 0 0 0 0 0 0 0 0 0 0 0 0 0 0 6 > > w w e $ # i G ` -.4.,.4X^.A.A.qX6.D.yXyX<Xk.        ",
"  M L 0.w.q.%.E v # # e 3 8 0 0 0 0 0 0 0 0 0 0 0 0 0 0 0 0 0 6 > > w 1 0 q # # v ) #.4.6.0X~.A.A.aXS.,.5XuX9XG.        ",
"  b S q.w.w.~ m r # 7 0 2 w 2 w 0 0 0 0 0 0 0 0 0 0 0 0 0 0 0 6 > - w 0 0 e ; X r b R 5.W.aX~.A.A.aX^.1.5XuX0XH.        ",
"E L V t.*.%.E p # = e 2 4 w 2 w 0 0 0 0 0 0 0 0 0 0 0 0 0 0 0 6 8 6 w e 0 0 q $ X s R 5.W.aX~.A.D.qX{.1.,XuXqXJ.        ",
"` B P q.r.#.! t # 7 e w w 0 0 7 0 0 0 0 0 0 0 0 0 0 0 0 0 0 0 0 6 e 0 w 9 6 e q # y ' 5.].aX~.A.D.qX X1.,XuXqXP.N.      ",
"^ Z S 9.&.%.G a = 7 w 0 0 w 0 7 6 0 0 0 0 0 0 0 0 0 0 0 0 0 0 0 0 w w w > > w e @ I &Xa.).hX!.Y.A.8X{.<.,XtXqXH.        ",
"^ Z S 0.q.0.E a = 0 w 0 0 6 7 7 6 0 0 0 0 0 0 0 0 0 0 0 0 0 0 0 0 w w 7 > > 0 0 1 I &Xp.).aXE.6.C.9X`.,.,XtXqXL.        ",
"^ C S 0.q.0.E s = 0 l 0 6 ; 7 7 6 0 0 0 0 0 0 0 0 0 0 0 0 0 0 0 0 0 w 7 > > w w < } &Xx._.aX/.A.S.qX.X,.6XtX8XL.        ",
"^ C C 0.0.0.E s = 0 l w > ; 7 7 0 0 0 0 0 0 0 0 0 0 0 0 0 0 0 0 0 0 7 7 ; 6 w w + } *Xp.].rX!.C.C.8X{.1.,X9X9XP.        ",
"^ C C 0.0.0.E s = 0 l w > ; 6 6 0 0 0 0 0 0 0 0 0 0 0 0 0 0 0 0 0 0 7 7 7 0 w w & { *Xp.).aX!.C.A.0X X,.,XuX8XJ.        ",
"^ C S 0.0.0.T s = 0 w 0 > > 6 0 0 0 0 0 0 0 0 0 0 0 0 0 0 0 0 0 3 8 7 q q w w w & ] *Xp.).eX!.A.Y.4X.X2.,XuX8XG.        ",
"R C S 0.%.%.T s = 0 w 0 6 6 6 6 0 0 0 0 0 0 0 0 0 0 0 0 0 0 0 6 3 8 7 q q q w 8 & ] %Xp.K./.A.A.6.!.Y.>.,X0X8XJ.        ",
"R C S 0.&.#.E s = 0 w w 0 0 6 6 0 0 0 0 0 0 0 0 0 0 0 0 0 0 0 6 8 8 7 q q q w 8 o | %Xx.7.A.S.`.K.W.A.,.5XuX7XG.        ",
"^ C S q.&.%.H s - 6 w 0 w 0 0 0 0 0 0 0 0 0 0 0 0 0 0 0 0 0 0 0 6 0 q q q q 7 7 o { $Xp.). X7XwXpXpX}.5.tXiX4XJ.        ",
"^ C Z &.&.%.H s - 3 0 0 q 0 0 0 0 0 0 0 0 0 0 0 0 0 0 0 0 0 0 6 6 0 q q q 7 7 7 o } *Xg.k.G.G.@X1XfX3X5.:XiXqXJ.        ",
"^ C Z &.&.%.H s - 3 0 0 7 0 0 0 0 0 0 0 0 0 0 0 0 0 0 0 0 0 0 6 8 8 0 7 0 0 q w + [ %Xd.dXvX$X=XvX&X>X5.:XuX8XJ.        ",
"^ C Z &.&.%.H s - 3 0 0 7 0 0 0 0 0 0 0 0 0 0 0 0 0 0 0 0 0 0 6 8 : 6 6 0 0 w w + [ dXM.#X=XbXFXAXvX@Xk.<X9X4XG.        ",
"^ C Z &.&.%.H s - 2 0 0 7 0 0 0 0 0 0 0 0 0 0 0 0 0 0 0 0 0 0 6 8 8 6 6 0 0 8 8 O } *XM.#XbXFXDXFXZX$Xp.<X9X0Xl.        ",
"^ C Z &.&.%.H s - 2 0 0 7 0 0 0 0 0 0 0 0 0 0 0 0 0 0 0 0 0 0 6 8 8 6 0 0 0 8 8 6 j X.B.xXNXDXCXCXAX=Xg.<X5XuXH.        ",
"^ C Z &.&.%.H s - 8 0 0 q w 0 0 0 0 0 0 0 0 0 0 0 0 0 0 0 0 0 0 8 8 w w q w 8 8 - d H +XzXVXBXBXVXGXlXOX2X5XtXl.        ",
"^ C Z q.&.%.H s - 3 0 0 q w w 0 0 0 0 0 0 0 0 0 0 0 0 0 0 0 0 0 w 0 0 0 q w 8 8 ; j ( +XzXVXMXBXMXSXzXM.1XiXsXl.        ",
"^ C Z &.&.%.Q s - 8 0 0 q 0 0 0 0 0 0 0 0 0 0 0 0 0 0 0 0 0 0 0 0 0 0 q q q 8 8 7 j P V.zXBXBXBXMXSXlXM.2X5XsXl.        ",
"^ C Z &.&.%.Q s - 8 0 0 q 0 0 0 0 0 0 0 0 0 0 0 0 0 0 0 0 0 0 0 w w w q q q 8 0 7 j ( B.cXbXNXVXNXmX-XM.2X5XsXl.        ",
"^ C Z &.&.%.Q s - 3 0 0 7 0 0 0 0 0 0 0 0 0 0 0 0 0 0 0 0 0 0 0 0 0 q q q 7 0 7 $ h R c.#XzXbXZXAXbX$Xg.<X9X0XH.        ",
"^ C Z &.&.%.K s - 3 0 0 7 0 0 0 0 0 0 0 0 0 0 0 0 0 0 0 0 0 0 0 0 0 7 7 7 7 8 > * h T k.@X%XlXnXbXlX@Xi.<X8X9XH.        ",
"^ C Z &.&.%.K s - 3 0 0 7 0 0 0 0 0 0 0 0 0 0 0 0 0 0 0 0 0 0 0 0 0 7 7 7 6 7 > * h R 5.P.1X&X#X=X&X1X5.}.8X9XL.        ",
"^ C Z &.&.%.K s - 3 0 0 7 0 0 0 0 0 0 0 0 0 0 0 0 0 0 0 0 0 0 6 8 0 7 q 0 8 7 > * u T 4.K.K.k.>XfXfX3X<.}.0X8XH.        ",
"~ C Z &.$.%.H s - 6 0 0 q w 0 0 0 0 0 0 0 0 0 0 0 0 0 0 0 0 0 6 8 8 w 0 0 8 8 6 O ] +Xx.K.`.'.<XgXyX X>.,XuX8XG.        ",
"~ C Z q.%.#.H s - 8 w w 0 0 0 6 0 0 0 0 0 0 0 0 0 0 0 0 0 0 0 6 8 8 w w 0 0 7 7 + { dXx.W.'. X7X{.{.{.>.5XtX7XJ.        ",
"~ C Z q.q.%.H s - 3 0 w 0 6 : : 6 0 0 0 0 0 0 0 0 0 0 0 0 0 0 0 0 0 6 6 6 6 7 7 + [ *Xx.l.E.6.A.2.E.Z.>.4X5X4XP.        ",
"~ C C q.q.0.H s * 6 l q 0 6 : > 0 0 0 0 0 0 0 0 0 0 0 0 0 0 7 0 w w 6 6 6 6 7 7 + } &Xp._.jX{.2.!.hXoX,.}.0XrXH.        ",
"~ C Z q.q.0.H s = w z z q q 7 6 0 0 0 0 0 0 0 0 0 0 0 0 0 0 0 0 0 w 0 6 8 6 7 7 + } %Xa.).hX/.<.Y.eX X1.}.9X0XL.        ",
"/ C C q.&.0.H s = 0 z z q q q 0 0 0 6 6 6 6 6 6 6 6 6 6 6 6 6 0 0 w 0 6 8 6 0 9 & [ %Xa.I.7X!.Z.Z.8X`.,.4X9X4XL.        ",
"/ C C %.%.%.E s * 6 0 q q 7 6 6 6 7 7 7 ; ; 7 7 7 7 7 7 7 7 7 7 w 0 w 6 w 0 w e , } %Xp.).aX/.C.Y.eX}.1.,XuX9XL.        ",
"/ C C %.%.0.E g * 6 w w 7 6 6 6 6 7 7 7 7 ; 7 7 7 7 7 7 7 7 7 7 0 w 0 6 0 0 0 e , O.-Xp.].qX~.6.A.0X}.1.|.0XqXP.        ",
") C S q.q.0.Q s * 6 w w 0 6 6 6 0 0 w 0 0 0 0 0 0 0 0 0 0 0 0 0 7 7 7 6 0 w q e < [ $Xp._.sX/.A.Y.8X|.<.<X9X9XL.        ",
"^ Z S q.q.0.K s = 6 w w 7 6 6 6 6 0 w 0 w 0 w 0 w 0 w 0 w 0 w 0 7 ; ; ; 0 w q q + } *Xp.).sX~.6.Y.8X}.,.}.uXqXH.        ",
"^ Z F 9.t.q.H s * > 7 7 7 7 6 6 0 0 0 0 w w w 0 0 0 0 0 w w w 0 7 = ; ; 6 0 7 7 + [ %Xi.).aX^.C.A.qX|.,.,X0XrXH.        ",
"R C Z &.&.9.L g * > 7 7 7 7 0 6 w w w w w w w w q q q q w w w 7 7 7 7 6 0 w 7 9 o { ;Xa.).eX/.C.A.0X{.<.|.9X9XH.        ",
"R C C w.%.0.H g * 8 0 w w w w 0 w 0 0 0 w w w w 0 0 0 0 w w w w 0 0 0 w 5 w 0 w & } ;Xi.).eX/.2.Y.rX|.<.}.qXrXL.        ",
"/ C D 0._ X.Q s * 3 w w w w w w w 0 0 0 0 0 0 0 0 0 0 0 0 0 0 0 5 5 4 4 x w w 7 O k h.k.W.oXE.U.U..X/.,.|.9X8XH.        ",
") b A L L K U a O + < < < < < < < + + + + + + + + + + + + + + + , , + + < < $ $ $ u D 8.7.m.3.U.3.2.6.>.oXoX4XP.        ",
") b A B V A L p X . X X # # # X X X X X X X X X X X X X X X X X X X X X X X # # X y R 4.Q.(.'.[.(.(.!.>././.'.k.        ",
"~ C Z Z F Z F v a u a p p p p p p a a a a a a a a a a a a a a a p a p p p p p p y v R ,.U.T.(.U.Q.(.T.>.A.!.(.H.        ",
"^ F F F F F F D Y Y W W H E H G W W W W W W W W W W W W W W W W K H H H J J K W W T D ,.3.3.,.2.3.3.>.3.2.3.3.4.        "
};
