/* XPM */
static char *geometrydash_png1713438630[] = {
/* columns rows colors chars-per-pixel */
"64 64 200 2 ",
"   c None",
".  c black",
"X  c #010000",
"o  c #000001",
"O  c #000101",
"+  c #020200",
"@  c #030200",
"#  c #000102",
"$  c #000202",
"%  c #000303",
"&  c #050400",
"*  c #070400",
"=  c #070500",
"-  c #000404",
";  c #000707",
":  c #080500",
">  c #080600",
",  c #000708",
"<  c #000909",
"1  c #000A0A",
"2  c #000B0B",
"3  c #000B0C",
"4  c #000C0C",
"5  c #000D0D",
"6  c #000E0E",
"7  c #100B00",
"8  c #110D00",
"9  c #120D00",
"0  c #120E00",
"q  c #130E00",
"w  c #161000",
"e  c #171100",
"r  c #181200",
"t  c #191200",
"y  c #1A1300",
"u  c #001212",
"i  c #001414",
"p  c #001515",
"a  c #001717",
"s  c #001818",
"d  c #001919",
"f  c #001A1A",
"g  c #001B1B",
"h  c #001B1C",
"j  c #001D1D",
"k  c #001E1E",
"l  c #201700",
"z  c #211800",
"x  c #211900",
"c  c #221900",
"v  c #231A00",
"b  c #241A00",
"n  c #2A1F00",
"m  c #322400",
"M  c #332500",
"N  c #342500",
"B  c #342600",
"V  c #352600",
"C  c #382900",
"Z  c #3B2B00",
"A  c #002121",
"S  c #002222",
"D  c #002323",
"F  c #002525",
"G  c #002626",
"H  c #002C2C",
"J  c #003131",
"K  c #003232",
"L  c #003A3A",
"P  c #403000",
"I  c #413000",
"U  c #423100",
"Y  c #493500",
"T  c #4C3700",
"R  c #4E3900",
"E  c #4F3900",
"W  c #513A00",
"Q  c #513B00",
"!  c #523C00",
"~  c #533C00",
"^  c #584000",
"/  c #6D5000",
"(  c #6E5000",
")  c #6F5100",
"_  c #755500",
"`  c #775700",
"'  c #7A5900",
"]  c #785B00",
"[  c #004747",
"{  c #004A4A",
"}  c #004B4B",
"|  c #007676",
" . c #816000",
".. c #826100",
"X. c #836100",
"o. c #836200",
"O. c #846000",
"+. c #876400",
"@. c #896600",
"#. c #8A6700",
"$. c #8B6700",
"%. c #9D7300",
"&. c #9E7300",
"*. c #9F7300",
"=. c #9F7400",
"-. c #A17500",
";. c #A07600",
":. c #A27600",
">. c #A37700",
",. c #A47900",
"<. c #AF7F00",
"1. c #B68500",
"2. c #B78600",
"3. c #B88600",
"4. c #B98700",
"5. c #B98800",
"6. c #BA8800",
"7. c #BB8900",
"8. c #BC8800",
"9. c #BF8B00",
"0. c #BF8C00",
"q. c #D39A00",
"w. c #D29C00",
"e. c #D39C00",
"r. c #D9A000",
"t. c #DDA300",
"y. c #DDA400",
"u. c #DEA500",
"i. c #DFA500",
"p. c #DFA600",
"a. c #E0A600",
"s. c #E0A700",
"d. c #E2A700",
"f. c #E1A800",
"g. c #E6A900",
"h. c #E6AA00",
"j. c #E7AA00",
"k. c #E8AB00",
"l. c #E9AB00",
"z. c #F0B000",
"x. c #F1B000",
"c. c #F2B100",
"v. c #F3B300",
"b. c #F4B200",
"n. c #F7B400",
"m. c #F8B400",
"M. c #F9B500",
"N. c #F8B600",
"B. c #F9B600",
"V. c #FAB600",
"C. c #FBB600",
"Z. c #FBB700",
"A. c #FBB800",
"S. c #FCB800",
"D. c #FDB800",
"F. c #FEB900",
"G. c #FFB900",
"H. c #FFBA00",
"J. c #FFBB00",
"K. c #FFBC00",
"L. c #FFBD00",
"P. c #FFBE00",
"I. c #008787",
"U. c #008E8E",
"Y. c #009595",
"T. c #009898",
"R. c #009999",
"E. c #00A5A5",
"W. c #00ABAB",
"Q. c #00ACAC",
"!. c #00ADAD",
"~. c #00AEAE",
"^. c #00AFAF",
"/. c #00B0B0",
"(. c #00B6B6",
"). c #00BFBF",
"_. c #00C3C3",
"`. c #00C4C4",
"'. c #00C5C5",
"]. c #00C6C6",
"[. c #00C7C7",
"{. c #00C8C8",
"}. c #00C9C9",
"|. c #00CACA",
" X c #00CCCC",
".X c #00CECE",
"XX c #00CFCF",
"oX c #00D0D0",
"OX c #00D1D1",
"+X c #00D2D2",
"@X c #00D8D8",
"#X c #00DBDB",
"$X c #00DEDE",
"%X c #00DFDF",
"&X c #00E0E0",
"*X c #00E1E1",
"=X c #00E2E2",
"-X c #00F2F2",
";X c #00F5F5",
":X c cyan",
/* pixels */
"                                                                                                                                ",
"                                                                                                                                ",
"        . . . . . . . . . . . . . . . . . . . . . . . . . . . . . . . . . . . . . . . . . . . . . . . . . . . . . . . . .       ",
"      . . . . . . . . . . . . . . . . . . . . . . . . . . . . . . . . . . . . . . . . . . . . . . . . . . . . . . . . . .       ",
"    . . . 8 z l z z y z l l l l z y z z z z z y z z l l l l z y l l l l z z z z z y z z l z y z z z l l l l z y z z r . . .     ",
"    . . . ] s.y.y.y.s.y.y.y.y.y.y.y.y.y.y.y.y.y.y.y.y.y.y.y.y.y.y.y.y.t.y.y.y.y.y.y.y.y.y.y.s.y.y.y.y.y.y.y.y.y.y.y.:.8 . .     ",
"    . . . @.P.G.G.P.G.G.P.G.G.P.G.G.P.G.G.P.G.P.P.G.G.P.G.P.G.G.G.P.G.P.P.G.P.G.G.G.P.G.G.P.G.G.P.G.G.P.G.P.G.G.P.P.7.8 . .     ",
"    . . . @.P.G.G.G.G.G.G.G.G.G.G.G.G.G.G.G.G.G.G.G.G.G.G.G.G.G.G.G.G.G.G.G.G.G.G.G.G.G.G.G.G.G.G.G.G.G.G.G.G.G.G.G.7.w . .     ",
"    . . . @.P.G.G.G.G.G.G.G.G.G.G.G.G.G.G.G.G.G.G.G.G.G.G.G.G.G.G.G.G.G.G.G.G.G.G.G.G.G.G.G.G.G.G.G.G.G.G.G.G.G.G.G.1.8 . .     ",
"    . . . @.P.G.G.G.G.G.G.G.G.G.G.G.G.G.G.G.G.G.G.G.G.G.G.G.G.G.G.G.G.G.G.G.G.G.G.G.G.G.G.G.G.G.G.G.G.G.G.G.G.G.G.P.4.8 . .     ",
"    . . . @.G.G.G.G.G.G.G.G.G.G.G.G.G.G.G.G.G.G.G.G.G.G.G.G.G.G.G.G.G.G.G.G.G.G.G.G.G.G.G.G.G.G.G.G.G.G.G.G.G.G.G.G.7.8 . .     ",
"    . . . @.P.G.G.G.G.G.G.G.G.G.G.G.G.G.G.G.G.G.G.G.G.G.G.G.G.G.G.G.G.G.G.G.G.G.G.G.G.G.G.G.G.G.G.G.G.G.G.G.G.G.G.G.1.8 . .     ",
"    . . . @.P.G.G.G.G.G.G.G.G.G.G.G.G.G.G.G.G.G.G.G.G.G.G.G.G.G.G.G.G.G.G.G.G.G.G.G.G.G.G.G.G.G.G.G.G.G.G.G.G.G.G.G.7.q . .     ",
"    . . . @.G.G.G.G.G.G.G.G.G.G.G.G.G.G.G.G.G.G.G.G.G.G.G.G.G.G.G.G.G.G.G.G.G.G.G.G.G.G.G.G.G.G.G.G.G.G.G.G.G.G.G.G.4.8 . .     ",
"    . . . @.G.G.G.G.G.G.G.G.G.G.G.G.G.G.G.G.G.G.G.G.G.G.G.G.G.G.G.G.G.G.G.G.G.G.G.G.G.G.G.G.G.G.G.G.G.G.G.G.G.G.G.P.1.8 . .     ",
"    . . . @.P.G.G.G.G.G.G.P.P.G.G.P.P.G.P.G.P.P.G.P.G.G.G.G.G.G.G.G.G.G.G.G.G.P.G.P.P.G.P.G.P.P.P.P.G.P.G.G.G.G.G.G.7.q . .     ",
"    . . . @.P.G.G.G.G.P.q.+.X.X.X.X.X.o.o.X.o.X.X.>.C.G.G.G.G.G.G.G.G.G.G.G.9.+.X.X.o.X.o.X.o.o.X.X.X.7.G.G.G.G.G.G.4.8 . .     ",
"    . . . @.G.G.G.G.G.G.*.* . . . . . . . . . . . U v.G.G.G.G.G.G.G.G.G.G.D._ . . . . . . . . . . . . / P.G.G.G.G.P.4.8 . .     ",
"    . . . @.P.G.G.G.G.G.*.& . 1 5 u 5 5 5 5 5 - . U v.G.G.G.G.G.G.G.G.G.G.C.` . . 5 5 6 6 6 6 6 3 . . / G.G.G.G.G.P.4.q . .     ",
"    . . . @.G.G.G.G.G.P.*.& 1 | /.Q.Q.^.^.^.R.D . U v.G.G.G.G.G.G.G.G.G.G.G.] . a U././.Q.^.Q.^.I.u . _ G.G.G.G.G.G.1.8 . .     ",
"    . . . @.P.G.G.G.G.G.:.> 5 ^.:X:X:X:X:X:X=XK . U v.G.G.G.G.G.G.G.G.G.G.C._ . k OX:X:X:X:X:X:X`.g . / G.G.G.G.G.G.4.q . .     ",
"    . . . @.P.G.G.G.G.P.*.* 3 Q.:X:X:X:X:X:X%XK . U v.G.G.G.G.G.G.G.G.G.G.D._ . g .X:X:X:X:X:X:X_.g . / P.G.G.G.G.G.4.q . .     ",
"    . . . @.G.G.G.G.G.G.*.& 1 W.:X:X:X:X:X:X%XK . U v.G.G.G.G.G.G.G.G.G.G.D.] . k .X:X:X:X:X:X:X_.a . _ G.G.G.G.G.P.1.8 . .     ",
"    . . . @.P.G.G.G.G.G.*.> 5 Q.:X:X:X:X:X:X%XK . U v.G.G.G.G.G.G.G.G.G.G.D._ . k OX:X:X:X:X:X:X_.g . / P.G.G.G.G.G.4.8 . .     ",
"    . . . @.P.G.G.G.G.G.:.> 3 Q.:X:X:X:X:X:X%XJ . U c.G.G.G.G.G.G.G.G.G.G.A.] . g .X:X:X:X:X:X:X_.g . / G.G.G.G.G.P.4.q . .     ",
"    . . . @.G.G.G.G.G.P.*.> 1 Q.:X:X:X:X:X:X=XK . U v.G.G.G.G.G.G.G.G.G.G.A.` . k OX:X:X:X:X:X:X_.g . / P.G.G.G.G.G.1.q . .     ",
"    . . . @.P.G.G.G.G.G.%.& 1 T.%X%X%X%X%X=X`.H . U v.G.G.G.G.G.G.G.G.G.G.D._ . g (.=X%X%X%X%X=XQ.a . _ G.G.G.G.G.P.4.8 . .     ",
"    . . . @.P.G.G.G.G.P.>.> . s A A A k A A k ; . U v.G.G.G.G.G.G.G.G.G.G.D.] . - g A A A A k A g - . / G.G.G.G.G.G.4.8 . .     ",
"    . . . @.G.G.G.G.G.G.%.& . . . . . . . . . . . U v.G.G.G.G.G.G.G.G.G.G.D._ . . . . . . . . . . . . / P.G.G.G.G.G.1.q . .     ",
"    . . . @.P.G.G.G.G.G.0.^ R ! R R R R R R R R T X.n.G.G.G.G.G.G.G.G.G.G.D.:.! R E ! R R R R R R R T *.G.G.G.G.G.G.1.8 . .     ",
"    . . . @.P.G.G.G.G.G.C.c.c.c.c.z.z.z.c.z.z.z.c.n.G.G.G.G.G.G.G.G.G.G.G.G.C.c.z.c.c.c.c.l.z.z.z.z.z.n.G.G.G.G.G.P.4.q . .     ",
"    . . . @.G.G.G.G.G.G.G.G.G.G.G.G.G.G.G.P.G.G.G.G.G.G.G.G.G.G.G.G.G.G.G.G.G.G.G.G.G.G.G.P.G.P.G.G.G.G.G.G.G.G.G.G.4.q . .     ",
"    . . . @.P.G.G.G.G.G.G.G.G.G.G.G.G.G.G.G.G.G.G.G.G.G.G.G.G.G.G.G.G.G.G.G.G.G.G.G.G.G.G.G.G.G.G.G.G.G.G.G.G.G.G.G.1.8 . .     ",
"    . . . @.P.G.G.G.G.G.G.G.G.G.G.G.G.G.G.G.G.G.G.G.G.G.G.G.G.G.G.G.G.G.G.G.G.G.G.G.G.G.G.G.G.G.G.G.G.G.G.G.G.G.G.P.4.8 . .     ",
"    . . . @.G.G.G.G.G.G.G.G.G.G.G.G.G.G.G.G.G.G.G.G.G.G.G.G.G.G.G.G.G.G.G.G.G.G.G.G.G.G.G.G.G.G.G.G.G.G.G.G.G.G.G.G.7.8 . .     ",
"    . . . @.P.G.G.G.G.G.G.G.G.G.G.G.G.G.G.G.G.G.G.G.G.G.G.G.G.G.G.G.G.G.G.G.G.G.G.G.G.G.G.G.G.G.G.G.G.G.G.G.G.G.G.G.1.8 . .     ",
"    . . . @.P.G.G.G.G.G.G.G.G.G.G.G.G.P.G.G.G.G.G.G.G.P.G.G.G.G.G.G.G.G.G.G.G.G.G.G.G.G.G.G.G.P.G.G.G.G.G.G.G.G.G.P.4.8 . .     ",
"    . . . @.G.G.G.G.A.k.h.h.h.h.h.h.h.h.h.h.h.k.h.k.h.h.h.h.h.h.h.h.h.h.h.h.h.h.h.h.h.h.h.h.h.h.k.h.h.k.h.C.G.G.G.G.7.8 . .     ",
"    . . . @.G.G.G.P.t.T M M M M M M m B B B B B B B B B M M M M M M M M M M M M M M M M M M B M B B B B Z 9.G.G.G.G.1.8 . .     ",
"    . . . @.P.G.G.G.w.q . . . . . . . . . . . . . . . . . . . . . . . . . . . . . . . . . . . . . . . . & %.P.G.G.G.7.q . .     ",
"    . . . @.P.G.G.G.w.r . . 5 5 5 5 u 5 5 5 u 5 u 5 5 5 u 5 u 5 5 5 5 u u 5 5 5 u u 5 5 u 5 5 5 5 5 - . & :.P.G.G.P.1.8 . .     ",
"    . . . @.G.G.G.P.w.r . g Y.Q.Q./.Q.Q.Q./.Q.Q.Q.Q.Q./.Q.Q.Q.Q.Q./.Q.Q.Q.Q.Q./.Q.Q./.Q.Q.Q.Q./.^.E.K . & %.G.G.G.G.9.q . .     ",
"    . . . @.P.G.G.G.w.r . G #X:X:X:X:X:X:X:X:X:X:X:X:X:X:X:X:X:X:X:X:X:X:X:X:X:X:X:X:X:X:X:X:X:X:X;X} . > ,.G.G.G.G.1.8 . .     ",
"    . . . @.G.G.G.P.e.r . G #X:X:X:X:X:X:X:X:X:X:X:X:X:X:X:X:X:X:X:X:X:X:X:X:X:X:X:X:X:X:X:X:X:X:X-X[ . > :.G.G.G.P.7.8 . .     ",
"    . . . @.P.G.G.P.q.r . G #X:X:X:X:X:X:X:X:X:X:X:X:X:X:X:X:X:X:X:X:X:X:X:X:X:X:X:X:X:X:X:X:X:X:X;X} . & :.G.G.G.P.4.8 . .     ",
"    . . . @.P.G.G.G.w.w . k W.{.{.`.{.{.{.{.{.{.{.{.{.{.{.{.{.`.{.{.{.`.{.{.{.`.{.{.{.`.{.{.{.{.{.).L . > >.P.G.G.G.4.8 . .     ",
"    . . . @.G.G.G.P.w.r . - a g g a g a a g g g g a a g a g g a g g a g g g a g g g a g g g a a s g - . > :.G.G.G.G.4.8 . .     ",
"    . . . @.P.G.G.G.w.w . . . . . . . . . . . . . . . . . . . . . . . . . . . . . . . . . . . . . . . . & %.G.G.G.P.7.8 . .     ",
"    . . . @.P.G.G.G.e.Z b z b b b b b b z b b b z z b b b b z b b b b b b b b b b b b b z b v v b b z b n <.G.G.G.P.1.8 . .     ",
"    . . . @.G.G.G.G.C.s.s.s.s.y.y.y.y.s.s.s.s.y.s.a.t.s.s.y.s.s.y.s.y.y.s.y.s.y.s.y.s.y.s.s.y.y.y.s.y.s.s.b.G.G.G.G.7.q . .     ",
"    . . . @.P.G.G.G.G.P.P.G.G.G.P.G.G.G.G.P.G.P.G.P.G.G.G.P.G.P.P.G.G.G.G.P.P.G.G.G.P.G.P.G.G.G.G.G.G.P.P.G.G.G.G.P.4.q . .     ",
"    . . . @.P.G.G.G.G.G.G.G.G.G.G.G.G.G.G.G.G.G.G.G.G.G.G.G.G.G.G.G.G.G.G.G.G.G.G.G.G.G.G.G.G.G.G.G.G.G.G.G.G.G.G.G.7.8 . .     ",
"    . . . @.G.G.G.G.G.G.G.G.G.G.G.G.G.G.G.G.G.G.G.G.G.G.G.G.G.G.G.G.G.G.G.G.G.G.G.G.G.G.G.G.G.G.G.G.G.G.G.G.G.G.G.P.4.8 . .     ",
"    . . . @.P.G.G.G.G.G.G.G.G.G.G.G.G.G.G.G.G.G.G.G.G.G.G.G.G.G.G.G.G.G.G.G.G.G.G.G.G.G.G.G.G.G.G.G.G.G.G.G.G.G.G.G.4.q . .     ",
"    . . . @.P.G.G.G.G.G.G.G.G.G.G.G.G.G.G.G.G.G.G.G.G.G.G.G.G.G.G.G.G.G.G.G.G.G.G.G.G.G.G.G.G.G.G.G.G.G.G.G.G.G.G.G.1.8 . .     ",
"    . . . @.G.G.G.G.G.G.G.G.G.G.G.G.G.G.G.G.G.G.G.G.G.G.G.G.G.G.G.G.G.G.G.G.G.G.G.G.G.G.G.G.G.G.G.G.G.G.G.G.G.G.G.G.7.q . .     ",
"    . . . @.P.G.G.G.G.G.G.G.G.G.G.G.G.G.G.G.G.G.G.G.G.G.G.G.G.G.G.G.G.G.G.G.G.G.G.G.G.G.G.G.G.G.G.G.G.G.G.G.G.G.G.P.4.8 . .     ",
"    . . . @.P.P.P.G.P.P.G.G.G.P.P.P.G.G.G.P.P.P.G.G.P.P.G.G.P.P.G.P.P.P.G.P.G.G.P.P.G.G.G.P.P.P.G.G.P.P.G.G.P.P.G.P.1.8 . .     ",
"    . . . ] f.y.y.y.y.y.y.p.y.y.y.p.y.p.y.p.p.p.y.y.y.p.y.y.y.p.y.y.p.y.y.p.y.y.y.p.y.p.y.p.p.p.y.y.y.p.y.y.y.y.y.f.,.8 . .     ",
"    . . . 8 v z z z z v v z v z v z v z y v v z v z v z v z v z z z z v v z v z v z v z y v v z v z v z v z z z z z y * . .     ",
"      . . . . . . . . . . . . . . . . . . . . . . . . . . . . . . . . . . . . . . . . . . . . . . . . . . . . . . . . . . .     ",
"        . . . . . . . . . . . . . . . . . . . . . . . . . . . . . . . . . . . . . . . . . . . . . . . . . . . . . . . . .       ",
"                                                                                                                                ",
"                                                                                                                                "
};
