/* XPM */
static char *_72d0b42c3724ad0d5f64b48fc27ab85XvVfadMd4bCiNSZ4[] = {
/* columns rows colors chars-per-pixel */
"64 64 256 2 ",
"   c #181B08",
".  c #1A1B18",
"X  c #101A13",
"o  c #2A190A",
"O  c #371909",
"+  c #2A1C13",
"@  c #291919",
"#  c #361B18",
"$  c #320D1B",
"%  c #1B270A",
"&  c #1A2718",
"*  c #183316",
"=  c #102D10",
"-  c #27250B",
";  c #382609",
":  c #393308",
">  c #2A2415",
",  c #2C241A",
"<  c #262819",
"1  c #342314",
"2  c #3B2514",
"3  c #34241C",
"4  c #3B241C",
"5  c #332B1B",
"6  c #3B2B1B",
"7  c #382B14",
"8  c #263419",
"9  c #383417",
"0  c #293207",
"q  c #1A1C24",
"w  c #061729",
"e  c #281B27",
"r  c #321C24",
"t  c #381A27",
"y  c #281D35",
"u  c #371B35",
"i  c #2F0F34",
"p  c #1A2626",
"a  c #132E29",
"s  c #2C2223",
"d  c #2C2B23",
"f  c #2B222B",
"g  c #252727",
"h  c #332323",
"j  c #3B2423",
"k  c #342B23",
"l  c #3C2B23",
"z  c #34222A",
"x  c #3A292A",
"c  c #2B3527",
"v  c #3C3223",
"b  c #3A3329",
"n  c #282635",
"m  c #332333",
"M  c #392836",
"N  c #323835",
"B  c #47190B",
"V  c #461B19",
"C  c #541A19",
"Z  c #57170C",
"A  c #45290A",
"S  c #57290A",
"D  c #493508",
"F  c #442B14",
"G  c #43241C",
"H  c #4B241B",
"J  c #442A1C",
"K  c #4B2B1B",
"L  c #482714",
"P  c #562818",
"I  c #44321C",
"U  c #493418",
"Y  c #573417",
"T  c #59340A",
"R  c #67280B",
"E  c #772A0A",
"W  c #793708",
"Q  c #682916",
"!  c #782A18",
"~  c #693418",
"^  c #773617",
"/  c #683708",
"(  c #471A26",
")  c #551D27",
"_  c #451C35",
"`  c #541E37",
"'  c #681C2B",
"]  c #432423",
"[  c #4B2523",
"{  c #442B24",
"}  c #4B2D23",
"|  c #432A2B",
" . c #4B2B2B",
".. c #48242B",
"X. c #552927",
"o. c #433324",
"O. c #4C3124",
"+. c #4C332C",
"@. c #44372A",
"#. c #553428",
"$. c #482736",
"%. c #552835",
"&. c #493434",
"*. c #583734",
"=. c #672727",
"-. c #792926",
";. c #693527",
":. c #783725",
">. c #6B2C34",
",. c #741915",
"<. c #71450D",
"1. c #504334",
"2. c #6D442C",
"3. c #4B400A",
"4. c #3C3047",
"5. c #281D46",
"6. c #502E42",
"7. c #6D3446",
"8. c #551641",
"9. c #544446",
"0. c #736F56",
"q. c #776A68",
"w. c #71716E",
"e. c #675A62",
"r. c #394521",
"t. c #893708",
"y. c #963609",
"u. c #88371A",
"i. c #983717",
"p. c #912A10",
"a. c #A93808",
"s. c #A63918",
"d. c #B63A18",
"f. c #AE3110",
"g. c #863624",
"h. c #983827",
"j. c #8E312D",
"k. c #A63927",
"l. c #AE332B",
"z. c #8C1C18",
"x. c #C93B06",
"c. c #C63A17",
"v. c #D73B12",
"b. c #F33D10",
"n. c #CD3A2A",
"m. c #994508",
"M. c #9C4419",
"N. c #8D4812",
"B. c #A74708",
"V. c #B54907",
"C. c #A94517",
"Z. c #B74518",
"A. c #B2530E",
"S. c #904529",
"D. c #A74726",
"F. c #B1492A",
"G. c #C74A0A",
"H. c #D94907",
"J. c #DB5507",
"K. c #C54817",
"L. c #D74818",
"P. c #C75618",
"I. c #D75617",
"U. c #CB5507",
"Y. c #E94B08",
"T. c #FE4B03",
"R. c #FA4A0A",
"E. c #E95607",
"W. c #FE5303",
"Q. c #F45B02",
"!. c #FC5C02",
"~. c #FD540B",
"^. c #FD5B0C",
"/. c #F4590D",
"(. c #E74918",
"). c #FE4D13",
"_. c #F94919",
"`. c #EC5C13",
"'. c #E75619",
"]. c #FD5414",
"[. c #FD5C14",
"{. c #FE531C",
"}. c #FD5B1B",
"|. c #F35717",
" X c #DB6710",
".X c #E96706",
"XX c #FE640B",
"oX c #FE6B0C",
"OX c #F76805",
"+X c #EB7708",
"@X c #FF740B",
"#X c #F97706",
"$X c #EB6313",
"%X c #E96617",
"&X c #FE6314",
"*X c #FD6B13",
"=X c #FE631B",
"-X c #FE6B1B",
";X c #F46717",
":X c #E97617",
">X c #FD7313",
",X c #FD741B",
"<X c #F97917",
"1X c #C64724",
"2X c #D54823",
"3X c #C65425",
"4X c #D75526",
"5X c #D45336",
"6X c #E74A28",
"7X c #F94925",
"8X c #E75725",
"9X c #FE5422",
"0X c #FE5B23",
"qX c #FE5B2A",
"wX c #F75728",
"eX c #F05135",
"rX c #D3642C",
"tX c #FF6424",
"yX c #FE6B24",
"uX c #FB6829",
"iX c #EA7624",
"pX c #F87626",
"aX c #FB6733",
"sX c #FC7835",
"dX c #E9692C",
"fX c #936F55",
"gX c #846B66",
"hX c #8D736B",
"jX c #AE7470",
"kX c #BE7F5E",
"lX c #EA5C45",
"zX c #F67549",
"xX c #E27D6C",
"cX c #842640",
"vX c #75806F",
"bX c #D99011",
"nX c #EB8708",
"mX c #FA8407",
"MX c #EB8716",
"NX c #FB8718",
"BX c #FC9618",
"VX c #F09511",
"CX c #FA8627",
"ZX c #F69428",
"AX c #ED8C2D",
"SX c #F0A321",
"DX c #F78D53",
"FX c #F7A75A",
"GX c #FC8A68",
"HX c #F99664",
"JX c #F28F72",
"KX c #FBAA6A",
"LX c #CB8A65",
"PX c #84816E",
"IX c #927181",
"UX c #F3A082",
/* pixels */
"UX2.1.&.2.2.2.1.1.7.1.1.4.*.rXzXAXCXlX5X5X5XrXzXaXaXzXAXDXZXsXuXZXsXdXfX@.*.9.*.7.6.9.9.2.#.1.&.<.eXCXAXaXlX*.9.7.9.1.S.dXsXdXsX",
"kX; > ( X.> 5 } _ k     =.Z.OXQ.#XmX&X!..X*XoXd.p.t.y.!.@XnXbX$X-XoXT.g.. ( ( - A A F # # # f q Q 8X%X X/.i., F : X.e Z (.*X}.eX",
"0.o ] X. .{ { V 0 s t 2.^.W.D.k.9XZXSXBXpX9XP.- 4.M F `.tX9Xi.! j.'.[.u.= x u 5 7 5 5 k k 5 < < d.*XOX/.].^ p x U =.N P 8X-X].v.",
"w.@ # 3 4 j x z + ~ Z.*X%X=.w 0 6XNXMXMX,X_.i.. ..& ; E.qXk.r < 3 s.[.A.A j t t h e . g g h V ;._.=X^.].{.u.z ( m e = t.uX,X|.A.",
"hXo < x ..+ - F d.).pXuX_.i.~ i.*X`.a.C.$X@XdXS.P K i.[.6XY f X.O G Z.~.(.2XL.D.D.s.a.i.i.s.f.6X].7X|.[.}.%XV.M.Q F A x.XXNX;XrX",
"GXf.Y * 3 P C.8X,X<XbX+X>XpX{./.;X~ # ( ~ A.=XiX`.Y.].oXK.; , U &.y ;.~.).x.B.y.s.L.[.^.XX,XoX@X#X'.|.$XI.yXoXtX}.}.`.pX,XCX*X&X",
"DX_.2Xt.d.6XuX*X:X0X-X#X>X;X`.].3X# 1 [ g F s.oX0X/.|.|.l.] 4.%.+.V 1 Z.'.D * _ e Q 4XpXCXZXMXMXmX,X;XV.Q i.Y.R.}.].).uX%X}.OX#X",
"FX=X*X.X,XpX+XT.F.p.p.i.n._.W.|.i.# c k 4 M i W eX)./.'.P 2 k H 6.D X j.eXS 4 X.c S P.<XNX#XQ.^.}.uXwXz.e @ F.!.n.3.R d.H.T.^.aX",
"GX[.;X+X<XsX/.C., z u g <.{.].'.} G J } }  . .# P L.=X4XP s r # ( g h Z |.S.r ] C Z.*X*XP.:.X.[ D l.eXa.8 t L.aX^ y r 3 j >.k.8X",
"jXm.4X{..X+XXXn.e } @.< h.].&XL.4 G { } } }  .] & D '.pXm.! G x 7 < f U (.(.d.m.|.uXrXW B # 3 + 1 O g.1X; Y %X.XQ e # 2 , 1 1 D ",
"q.B =.C.`.`.^.}.=.6 * S 2X&X$Xa.1 { } } } } } +.{ e k.,X>X=XOXW.R.H.K.3X|.|.7XqX@XB.S @ u | { 4 t + 6 1Xc.2X,XOXK p 6 2 d 5 < k ",
"q.# d > k.(.XX^.L.Y O f.-XOXL.! 1 o.+.} } } } +.9 y W #X<XdXP.d.M.L._.|.-XOXE.&X<.A @ M *.P H *.z 4 - m.uX7X;X$XS & 5 r m } [ >.",
"hXo } @ s Q 1X).0XL.d.wXyXOXH.M 4 o.O.} } } [  .9 @ C.OXD...$ g e d U p.4X*XE.c.V t b @.9 F [ %.[ - 2 K.*XR.yX`.E r ] ..$.Y K  .",
"PX$ H 2 4 . X.6X]._.Q.NX0X0XC.e j { } } O.O.} } ` + lX3X< u V o.} V r p T ~.uX=.r ] J J v &.&.%.%.< P '..X*XBX=Xg.u G X.O.Y b N ",
"q. .: . ` 4 * k.^.|.+XmX{.qXN.+ j { } O.O.O.O.J e / ;XW % X.X.| I } @.M ; J.:XS < 5 } X.X.} |  .d g Q `.:XCXbX>XM.r # I 6 K @.*.",
"fXm x g h V + W -X:XBXVX0X_.B.e j 4 { } J J { 1 s '.`.F M X.I b $.#.0 j r 2X&Xh.> j ..X.P F 6 5 7 k l.~.CXyXmXiXJ.V t @.k G  .#.",
"vX$ { 0 # u k ^ sXmXoXiXyXOXY.u.g f y , 1 n f V m.*Xd.j : D b | v D P m t c.qX4X..o F -  .%.5 B # X..XW.yXuX`.<X[.~ @ K :  .%.1.",
"hX# s + { , O 1XCXoXW.I.E.XX-X8XG.m.E ' ~ t.n.[.).}.u.e } %.M V j O l X < A.!.<XZ.- n $.J ; 7 h p a.|.aX[.H.E.&XOXZ.o 2 L  .) { ",
"gX  8 4 ( t W :X:X|.L.4X1XwXyX].wX(.W.qX5XB.y.u.(.'.^ p m f p 0 [ ;.h.k.3X`.XXNXtXa.2 e u r s g :.T. XsXZ.U l.;XOX7XL d ] k | b ",
"w.o } 4 @ #.P.#XqXu.B ; o ! 7X].M.- g.'.^ e 4 q 1X`.t.> 2 E d.4X!.;XW.!.oX/.=XCX:X&XV.^ #.j P u.Y.qX-XI.F & 5.v.-XqX^ s m + - { ",
"hX@ p @ Q P.>X>XZ.k m x M J 2X/.,.&  .L.1Xf . g.L.^.E.K.6X].].}.S.H  .X.P j.s.P.&X/.|.9XL.V.).~.!.0X].Q t <.m W oXOXZ.O x V ; X.",
"q.  9 g.v.-XNXXXt.e $.b $.% P.^.:.9 B.~.Y.V.5X4X{.}.`.$X>X:X%X'.P o t ( r u t - c.7X{.(.c.K.(.'.8XW.G.p ( D _ o.W.%XaXQ d r p M ",
"w.R G.{.0XMXZXT.Y f X.P ..A U.-X'.7X}.I.Z.Z.C.y.W ^ k.L.;X<X`.v.G k 1 U 9 6  .+ 0 5X9Xt.- e L Z.uXoXR.~ Y m # p._.%XaXd.Q # >  .",
"xX7XoX.XNXVXMX{.=.n 4 ; a ^ |.pX}..Xs.) 1 e r V m g , C d.&XXX2Xf s @.l l %.) x # t.|.F.h M -.|.OXpXNXT.P.n.V.=X}.E.W.=X'.A.V.L.",
"DX.XoX:XOX].uX!.p.a p ; * d.,XOX~.D.+ k 4 4 + 5 r H A @ :.XXmXI. .O 5  .2 P o.: A R J.).Z.5X-XOX*X>XNXNX,X-X,X<X@XY.].T.).=XOX-X",
"JXY.XX}.[.!.>X,X4Xk.u.~ u.7XAX=XL.S k j 5 } X.} x > > + k.OXBX0XX.# k } I *.$...5.U {.+XoXx.2.g.Z.2X}.*X<XBXNX#XQ.dX%XE.1XD.i.5X",
"jXK.-X9X1XB.J.pX>X+X&X_.).W.:X`.^ o k G v  .>.O.l + f V b.+XNX*X<.1 f 4 ) &.h h p E 0X,X/.E & t o F ^ B.(.}.-X>X;X9XqXK.P e 3 S ",
"e.Q %XG.4 < a.{.J.E.tXI.:XW.yX'.V x + J #.x b I 6 ( n P ].*XpX<Xy.$ $.U A * - [ t.v.<XtXg.8 - 5 X.4 & & 4 Q f.6XT.).n.P t X.F r.",
"e.R wXm.. %.1X[.{.L.(.Q.@XoX*XY.V x , } *.| b I 6 ] a ^ =X0X6X=X/.H a * C :.c.b.|.*X#XP.5 j L b o. .%.%.M g + K |.}.Z.< p X.} +.",
"fXy.7XC.E v.[.G.z.c C v.{.AXAX`.:.  x H o. .%.J l , ; L.tX1XE s.uXi.^ V.).uXpX:XZXmX_.K d V ( &. .+.J K K ..j 8 M.Y.Y.N.L f n { ",
"LXY.qX8X'.].K.~ < , < 2._.<XMX^.K.A h 4 5 ] ) 4 h # i.9XL.Q > 2  X-X}.[.<X:X%X*XbXmX_.X.m 6 G *.) X.K U I o.3 o g.uX,X$XL.! # U ",
"HX/.*XE.W.Z.) q m 9 z V (.OXsX,X{.D.@ k 2 6 > 5 h V 6X:X<.& | _ s.uX/.T.>X'.s.s.E.#X.XD.$ H 0 [ @.6 o.+.| j j h Q E.>XiX}.Y.L.2X",
"FX^.0X].V.} p G ) > 1 > h.qX+XNXW.7Xm.g u C $.< t C.+X$XP g &...S _.7X;XI.k z + Q (.#X&Xj.y N A 2 | { o.l 4 v e T 8X*XMXCX=X;X&X",
"JX~.[.d.g q F K X.} x + E |.>XCXSX.XW.s.K * X >.K.;XmXI.] e 4 = / 7X-X%X/ V t 8 f ~ %XMXY.z.@ = F x , 5 r # ; + =.7XXXMXNXMXSXCX",
"HXQ.M.M q H P $.@.H [ + S P.=XpXdX^.NX.XP.Q p.K.~.pXsX7Xi.<.W j.G.qX<XB.@ t j 5 d f X.'.mXQ.k.} @ s 8 0 3 j 4 z -.'.oX,XpX#XNXCX",
"GXx.K e F P 4 J M F P h d h.].@X|.n.h.0X^.|.9XXX+XnXmX^.K.Z.H.=X}.}.%XS t d | 4 4 ..e :.E.>XsXL.l.-.H + n m # B 3X&XOXE.b.b.*XiX",
"JX! p 3 7 } Y F  .I X.p e k.;XoXY.1 k P P.Q.rX%XtX|.d.-.h p ; c.~.T.l.& h # #.&.{ A ..f p.9X,XmX#XE.`.I.s.y.B.%X;X}.'.`._.7XyX<X",
"HXy.3 e s t { M P 2 h a ! 7XiX~.! | L 4.;.!.0X].a.R g f 2 7 * j.W.R.=.f 6 H v %.U 9 4 _ d a.oXAX+X$X&X[.}.uXiXdXt.-.=.R T ^ 1XCX",
"JXT.H.j.#.z p k G + # :.I.>X<X(.7 h d ..Z.T.9XT m ( ] v I ' @ S [.1X< z [ o.v [ l +.A 9 r T -XyXR.7X7X|._.[.'.y.  e n g d h P D.",
"HXY.|.{.J.V.t.H m < ^ 6X*XOX^.wX1XS ;.K.[.wXh.r l 9 #.} 9 6.e T `.j.- < _ b =.9 D $.%.- > 1X}.c.;.X.^ I.].).F.t } @. .[ +.J O o.",
"hXU.7X}.|.[.&X].1Xd.[.NX-X^.W.{.wX].E.W.].5XQ - A ) &.8 =. .+ g.wXS & j G { { v [ * , # M.tXC.t h s O 1X*XqX;.g K ..X.K K %.$.c ",
"jX'.[.a.j.W m.`.tX<XVX,X9X(.i._ Y x.qXpXOXL.& ] m | #.K %.M B a.qX! # @ 1 j ] V $.e G y.|.&Xt.= v @.s j.%X$X/ O 6 | | J 9 3 1 : ",
"DXXXOXS y K ( P J.[.MX/.i.X., d g A (.pXOXR.Y e 4 b 6 7 H % T rX>XK.:.U 2 3 s h o V k.%X>X4XO.c X.=., t.@X*X1X;.& s r r d , G :.",
"KXXX;X2.u +.m % G.=X Xp.( d 7 A _ & D I.&X~.2XP h { C { z < M.=XnX@X,X.XE.G.C.s.u.D.6X;XyXD.< V U d 3 a.#XMXaX_.P.P.K.2X2XK.L.qX",
"UX+X&X`.! . 3 y./.pXK.5 r  .O.[ l { . h.>X;X7XE.) d t m g R _.-XI.6XeX8X=XyX:XOX].).W.W.wXg.@ e z * :.0XoXyXaXQ.[.;X.XoXoXoX#XNX",
"KX#X=XQ.P.R ! 6X|.0Xf.0 6 ..$.+.o.P h C L.*X].{.dXt.B J u.'.qXA.H t f s H ;.u.f.L.E.Q.~.9Xv.^ K =.m.b.qXA.C.k.^ -.! W N.Z./.,XZX",
"HX|.eXJ.-X/.'.=XeX{.y.& | ;.o.> } 2 d V n./.V.j.4XY.W.%X9X{.].H...& 8 F ; 3 m m r 9 ! u.3X9X`.Y._.!.U.#.j o 2 + g # # + Z x.-XNX",
"GXH.E.|.7X&X8XW.Q.R.;.m b F x X.1 h a ! /.B.[ + e ^ L.{.}.OX~.9Xs.2 < ] h M | A l x _ m d S c.wX8X).i.X ` j X.o.v P ..n j Z.-X<X",
"LXV V G ^ v.{.`.R.8Xi.% e m d O 4 K Z.-Xj.( A 6.: < # u.].=XyX$XeXC.B c j - P @.F } X.U 8 & j >.7X[.i.f K F 7.9 O.} K n O G.`.uX",
"gXO 9 c g G y.`.E.pX(.i.~ Q ! S.K.}.R.t.< 4.#.7 ) | < B ! 8X<XnXW.[.f.* q | &...| J [ $.%.} ; - ;.~.I.< z j O.9 5 K H d V 3X<XeX",
"q.G +.x $.r L k.<XMX^.R.].`.R.).E.~.(.#.z X.X.+.&.@.@.$ 5 Z.oXBX;X-X7Xk.{ & C C M v 9 ] ) ) F v = d.|.; z ] +.#.} @.{ < H (.E.:.",
"w.k { X.>.s + -.OXsXeXh.Q 8 l >.L.).I.P 3 D } &.[ # + J n.iXMX<X<X#XNXI.s.Y G g % q y j K G # j B cX|.E d 7 6.J X.] J & ;.{.a.N ",
"IX> P =.z X R L.#X&Xt.% ( ..| h p S.%Xp.e 8 5 - % @.h.I.[.*X=XE.(.G.$X+X,X).L.F.c.f.R : c n n x ; %.|.Z.< F 8. .N V # s F.'.L $.",
"fX# X.r > E '.<XZXwXQ a %.O.F D ; Z.[.C.+.X.z.h.K.8X`.oX=Xn.2.D [ . P L.MXXXT.~.wX&XOX`.2Xk.Q 1 < E [.'.# t 4 x f 0 @ ~ |.d.> ` ",
"0.+ m < / '.,XbXXXG.: & ' +.l 4 S (.9X|.$X=XW.!.T.OX.X_.u.j f ..V m x n.}.uX3X! T ~ u.f.H.!./.6Xs.(.[.{.^ 1 % & $ 0 K Z.^.s.+  .",
"hX. , ^ 8XyX;X&XqX2XK X x N x e S.>XuXP.V.^ ~ 1X[.).K.9 + o.X.%.U c Z (.mX^.u.. < s e e n  .i.H.W.qXI._.4X~ X.=.U >.1X;X-Xi.. l ",
"0.,.F.#XOXqXZ.Z.x.E.I.u.] 3 2 Q $X@Xt.# z t < >.^.R.g.p 7 =.%.9 X.- ;.[.&XH.X.u 4 l l 4 1 1 h z k.'.XX*XR.)./.].eX_.oXXX_.8XW | ",
"JX.X:XiXtXN.6 e a ' u.P.'.V.G.}.uX8XX.z O.K - O F.sXi.q { P x @.X.& S.uX;XW < p l { } } } { j h q Q H.-X;X].|._.I.`.:X:X&X[.(.5X",
"JX#XBXpXc.4 t u < h # A m.tXsXMX,XL.h z Y #.l 3 P ,XU.H l : F P $.> K.qX(.F < x { } } O.+.O.{ 4 g ; C.yXCXpXNX#X#XBXZXNXNX[._.9X",
"GX/.>X[.Q u ) 2 # 4 ( q * s.&XBXNXv.4 b H M $.4 ( P.tXh.g g [ H M D /.).f.$ s C } } J K } } { 4 ` 1 B.@XBXMXMX#XMXCXpXE.R.s.2.G.",
"JX!.XXK.d n 6 d M z j $.n L x.BXpXv.l +.P | O.F # B.XXH.A > ..2 . W [.Y.Y h d A O.} } K } } { ] q F 2XoXmX%XuX].~.&X,X^.8X%.w S ",
"UXOX[.P j k { X.Y v < ; # u :.#XNXG.> z P X.o.j g F.[.+XB.] n e Z G.0XH., j x I } O.} } O.} { j = ^ wXpX>X].7XV.L.b.*X+X}.k.#.Z.",
"JX|.p.  V j G ; ; x ( B G $ R ~.<XU.; @ # # + $ u.eX].@X].p.P Z s.%X9Xs.o @ # [ 4 J J J { { 4 # + t.E.nXOX).i.+ - H p.E.~.R.Y.OX",
"KXzX0.w.q.gXfXw.q.IXq.e.q.w.fXHXJXDXfXq.w.q.0.fXDXDXFXFXHXHXLXLXDXFXDXjX0.w.0.hXgXgXgXgXgXgXq.q.gXxXHXKXDXDXhXe.0.w.e.xXGXDXHXJX"
};
