/* XPM */
static char *_000_F_583384224_IRkG5LrTY1KNeDVWpCvDPGBVKefwfD971713438591[] = {
/* columns rows colors chars-per-pixel */
"65 64 250 2 ",
"   c #3F0B05",
".  c #3B0D0F",
"X  c #450604",
"o  c #4B0603",
"O  c #450B04",
"+  c #4C0C04",
"@  c #450C09",
"#  c #4B0D0A",
"$  c #480608",
"%  c #530E05",
"&  c #5B0D04",
"*  c #520E0A",
"=  c #5C0E0A",
"-  c #451103",
";  c #4C1105",
":  c #45110C",
">  c #4B120B",
",  c #521205",
"<  c #5C1105",
"1  c #53120B",
"2  c #5D130B",
"3  c #5C1A0E",
"4  c #56180D",
"5  c #4A0D12",
"6  c #4D1311",
"7  c #4C1617",
"8  c #531311",
"9  c #5C1511",
"0  c #5C1C15",
"q  c #561A18",
"w  c #630D04",
"e  c #6A0D06",
"r  c #630E0A",
"t  c #690D0E",
"y  c #710F09",
"u  c #631205",
"i  c #6B1405",
"p  c #63130C",
"a  c #6B140B",
"s  c #641A0D",
"d  c #6C1A0C",
"f  c #6C1A06",
"g  c #741405",
"h  c #7A1505",
"j  c #73140B",
"k  c #7C150B",
"l  c #731B0B",
"z  c #7C1A0C",
"x  c #771B06",
"c  c #620C11",
"v  c #631511",
"b  c #6B1411",
"n  c #631C13",
"m  c #6B1B11",
"M  c #691E19",
"N  c #731C13",
"B  c #7E1D12",
"V  c #721412",
"C  c #5C2318",
"Z  c #562117",
"A  c #7B260E",
"S  c #7E2B0E",
"D  c #76270F",
"F  c #6E2012",
"G  c #662119",
"H  c #692419",
"J  c #752412",
"K  c #7B2613",
"L  c #742A14",
"P  c #7C2A14",
"I  c #7D2619",
"U  c #79271B",
"Y  c #6D220D",
"T  c #511F20",
"R  c #5C2421",
"E  c #652B28",
"W  c #772C22",
"Q  c #6F3429",
"!  c #7D352D",
"~  c #7A372A",
"^  c #7E3631",
"/  c #663632",
"(  c #784238",
")  c #831B0B",
"_  c #8B1D0D",
"`  c #831906",
"'  c #9C1C05",
"]  c #941D0C",
"[  c #9C1D0C",
"{  c #961906",
"}  c #8D1D11",
"|  c #861F11",
" . c #941D12",
".. c #9C1E12",
"X. c #9D1E18",
"o. c #A21D0C",
"O. c #A31D05",
"+. c #A21E11",
"@. c #A91F14",
"#. c #85250D",
"$. c #8D210D",
"%. c #862B0E",
"&. c #922405",
"*. c #93230C",
"=. c #9D210C",
"-. c #9E2A0D",
";. c #992708",
":. c #9B340E",
">. c #8B2212",
",. c #822C14",
"<. c #872917",
"1. c #942212",
"2. c #9D2212",
"3. c #9D2913",
"4. c #952519",
"5. c #9B2319",
"6. c #9C2A1C",
"7. c #942C17",
"8. c #8C3117",
"9. c #9B3413",
"0. c #9D3B17",
"q. c #9C351A",
"w. c #9D3B1B",
"e. c #923215",
"r. c #A42306",
"t. c #AA2505",
"y. c #A4230C",
"u. c #AB260C",
"i. c #A42B0C",
"p. c #AC2B0C",
"a. c #A62C06",
"s. c #B22C0C",
"d. c #B82D0E",
"f. c #B42A07",
"g. c #A4320E",
"h. c #AC320E",
"j. c #BD3406",
"k. c #B4330D",
"l. c #BD350C",
"z. c #BD390C",
"x. c #BA3605",
"c. c #A22312",
"v. c #AB2611",
"b. c #A52C12",
"n. c #AC2A14",
"m. c #A62D1A",
"M. c #AA2C1A",
"N. c #A62418",
"B. c #B12C12",
"V. c #B72F15",
"C. c #A43212",
"Z. c #A43B15",
"A. c #A23C1C",
"S. c #AA3619",
"D. c #B43414",
"F. c #BC3512",
"G. c #BC3A13",
"H. c #B4331A",
"J. c #B63C19",
"K. c #BD3A19",
"L. c #B73719",
"P. c #9B2B21",
"I. c #84382A",
"U. c #9E3C24",
"Y. c #853C34",
"T. c #8F2E25",
"R. c #A83A27",
"E. c #B23728",
"W. c #A53B33",
"Q. c #AD362B",
"!. c #C23405",
"~. c #C2350C",
"^. c #C2390C",
"/. c #C7380B",
"(. c #C23611",
"). c #C23A13",
"_. c #C83D13",
"`. c #C53D1A",
"'. c #C03518",
"]. c #C73D21",
"[. c #9E401E",
"{. c #AC4219",
"}. c #BB451C",
"|. c #B54A1D",
" X c #BA491E",
".X c #B44218",
"XX c #BF430F",
"oX c #854338",
"OX c #AA4629",
"+X c #BD4322",
"@X c #B64A21",
"#X c #BA4A22",
"$X c #B84626",
"%X c #B75136",
"&X c #C7430D",
"*X c #C54114",
"=X c #CB4616",
"-X c #CB4916",
";X c #C4431B",
":X c #CB451A",
">X c #CC4A1A",
",X c #C34A19",
"<X c #D24D1B",
"1X c #D34817",
"2X c #CE501B",
"3X c #D3521D",
"4X c #D75C19",
"5X c #C44421",
"6X c #CB4C24",
"7X c #C74924",
"8X c #D34E21",
"9X c #CC5224",
"0X c #CB542B",
"qX c #CD5B29",
"wX c #D35423",
"eX c #D95424",
"rX c #D45A25",
"tX c #DB5C25",
"yX c #D3552A",
"uX c #D45A2B",
"iX c #DC5D2A",
"pX c #D95628",
"aX c #C75634",
"sX c #D95E33",
"dX c #E25E26",
"fX c #E35E2A",
"gX c #E85E28",
"hX c #E35D30",
"jX c #DD6126",
"kX c #DD622A",
"lX c #DB682B",
"zX c #DE6633",
"xX c #DE6933",
"cX c #DC6A3B",
"vX c #D36739",
"bX c #DB7038",
"nX c #E36226",
"mX c #E3632B",
"MX c #E9642C",
"NX c #E5692C",
"BX c #E86327",
"VX c #E36532",
"CX c #E36934",
"ZX c #E16739",
"AX c #E46D3A",
"SX c #E96834",
"DX c #DC7447",
"FX c #D86E44",
"GX c #E37746",
"HX c #E17E54",
/* pixels */
"DXxXZXcXVXzXcXVXzXCXiX;X`.q.d U aXSXxXxXxXxXVXxXzXcXzXZXZXzXzXzXzXVXVXzXxXCXCXxXxXlXCX7XG.}.A n R.CXVXCXxXZXzXCXZXZXzXCXxXzXcXVXHX",
"SXtXjXjXnXdXiXBXnXnX3X^.~.&.w i ,XnXmXmXjXmXkXjXjXmXVXfXfXnXnXfXjXjXjXiXjXjXlXjXfXfXfX:Xl.D.g c e.nXjXfXtXnXtXdXkXfXnXkXnXjXnXdXGX",
"uX>X3X<X<X6X;X7X6XwX:X).(.*.2 a }.<X8X<X<XpXfXfX3X>XwX<X>XwX3X>X3X<X<X<X<X<XwX<X8X3X<XG.f.b.j p e.3X3X<X2X3X-X2XwX<X<X2X<X<X<X1XFX",
"}.x.z.l.k.p.{ [ F.j.z.F.~.*.a b i.j.^.z.x.-XjXjX:Xl.l.(.l.).l.l.l.F.F.l.F.(.(.l.l.x.x.r.'  .a u _ ~.j.~.l.^.x.l.G.l.z.l.l.l.l.l.aX",
"7Xl.).G.(.B.[ v.L.j.G.(.~.&.i a g.!.`.F.F.6XiXkX=X!.z.^.~.).l.l.l.~.l.l.^.).~.l.K.z.l.n.+. .a u *.^.~.(.).(.l.F.).^.^.^.^.~.~.~.aX",
"S.i.i.v.u.c.1.N.M.p.b.n.n.#.s V h./.).B.v.H.L.H.n.v.n.n.b.n.n.v.v.B.n.v.n.n.n.n.n.p.p.c.y.3.N b >.G.G.B.u.v.i.v.m.n.b.M.M.n.b.y.%X",
"M.[ ..[ [ [ [ o.y.[ 2.o.o.` u y h.^.F.y.' ..o.' [ o.o.=.[ [ y.o...o.[ [ [ ..[ =.c.o.o...[ ] l r *.^.z.t.{ ' r.[ o.o.[ o.[ [ [ ' OX",
"W.P.P.P.6.4.4.*. .] 1. .X.) s a 3.l.C.1. .5. . ... . .2.2.] 1. .[ ..] ..] 1.1.*.4.*.{  .*.$.l u <.k.D.i.*. .[  .1...=.1...] *.[ W.",
"Q n G G E G 2 4 0 9 3 1 2 s b V a a 3 2 9 9 9 = 2 1 9 0 1 2 c < 4 u p , < 9 9 2 9 2 2 2 2 9 m a N 2 2 4 2 2 2 1 4 9 u 4 2 1 = % Q ",
"C 7 Z q 7 5 # 5 X X + O o % u 2 O O O @ @ @ @ O o X # O + > > - . O X @   5 @ @ @ @ O O X * v r 1 o @ @ @ O O O O # X : # # * O E ",
"I.P ,.,.,.#.S P ,.,.,.P ,.<.8.e.,.,.,.P P <.,.P S S ,.z x d = * m 8.,.K %.,.P ,.,.,.,.,.,.,.8.8.<.%.%.P P ,.,.,.,.<.,.L z l u o Q ",
"GXkXiXiXiXfXfXhXmXtXmXnXnXtXfXdXfXdXfXdXtXnXmXfXnXjXiX*Xz.m.j r .XnXfXfXfXVXnXnXfXdXfXfXiXfXnXdXnXdXdXdXfXfXfXfXVXiXMX:Xx.G.` e ! ",
"GXvXlXiXtXjXjXlXmXtXmXfXkXkXmXiXkXkXVXVXnXmXkXnXkXjXiX&X!.g.i & {.jXjXkXjXkXjXjXmXjXmXjXmXVXmXfXVXmXmXjXkXmXjXjXlXjXNX2Xx.).` w ! ",
"uX:X:X=X=X=X:X-X1X=X7XL.H.`.1X=X-X=X-X-X:X-X:X:X1X:X:X~.~.C.a u S.mXfX>X:X6X:X>X>X=X:X:X:X:XG.L.`.;X-X-X:X:X:X:X:X=X-XL.p.u.z w ! ",
"5Xl.l.l.j.(.(.l.~.F.D.[ [ v.F.j.~.l.^.~.l.~.l.l.j.j.G.l./.b.a t {.mXnX^.j.~.j.l.~.j.z.j.j.k.=.{ p.F.j.j.j.l.j.~.(.^.j.M...[ f w ! ",
";Xz.).L.l.l.F.G.^.F.D.y.y.p.F.^.F.F.).G.l.).(.).).~.L.G./.9.a a OXjXdX).(.'.z.(.G.F.G.j.(.F.y.X.n.L.^.~.^.F.G.l.G.l.^.n...y.l e I.",
"5XF.F.c.c.v.=.v.y.c.3.2.5.c.y.N.=.y.N.3.i.y.c.3.2.y.y.y.v.>.j p i.:X_.t.5.m.v.c.-.-.r.y.y.5.2.2.3.v.y.i.N.N.=.-.v.c.-.y.+.2.k p Y.",
":X).k.O.[ o.[ =.@.o.u.o.+.o.O...o.o.+.@.+.@.o.o.[ y.o.v.+.} a = ;.G.(.r.;.=.[ [ @.+.@.o.c.@.o.O.c.o.' [ o.o.o.o.y.o.[ y.o. .k & ^ ",
"{.i.-.#.} } $.} } _ $. . .} _ } $._ } >._ >._ _ _ _ $.$.} | N a *.b.b.$._ ] } }  .} _ $._ $._ _ } ] >.} } } >._ >.>._ 1.} | z i I.",
"Z % 1 8 1 * % 8 4 , 6 6 * * % & 8 # 8 1 # 8 1 * * 1 1 1 + s s a < 1 1 * * 1 1 6 8 # * % % 1 8 6 8 * 1 6 * ; 1 # 1 8 * 8 * = p r Y.",
"T $ # : @ O O O # @ @ @ # > : ; X O ; O O ; O O # @ @ : O , s a % O O # o # # O % + O + O , ; @ : + X O O O O O O O O : O O w e Y.",
"OXA.A.w.q.w.0.A.w.A.w.&.{ x 1 < 7.U.0.0.w.R.w.0.0.0.A.U.0.R.A.Z.Z.w.w.w.w.0.w.0.w.q.w.*.$.#.i & I A.0.R.0.0.w.w.{.A.q.S.0.Z.Z.Z.%X",
"AXnXMXmXnXBXmXVXNXMXtX^./.;.a a wXNXNXNXmXSXmXmXnXmXMXMXnXNXmXmXgXMXNXBXnXNXSXBXCXmXMX1X/.D.h r q.NXmXVXnXmXSXnXVXVXmXSXMXMXnXjXHX",
"cXiXjXkXtXtXiXmXiXfXrXz.^.7.< g :XzXiXjXiXjXtXdXkXiXfXiXiXiXtXiXiXrXiXiXuXzXiXjXjXiXfX*XL.S.h = q.lX4XiXnXiXiXiXiXjXkXlXtXtXtXtXDX",
"6X).:X*X_.*X;X`.:X*X;Xz.^.*.V a C.=X:X;X*X;X;X).*X*X;X:X`.=X*X*X*X&X).D.m.H.;X).*X&X_.p.y.3.l i 7.:X*X;X_.*X*X_.2XkXmXwXG.`.=X^.aX",
";Xl.).l.~.j.~.(.~.j.(.^.).*.v a a.!.~.F.x.^.(.j.l.l.F.l.l.z.l.l.l.~.k.y.{ u.l.z.~.~.(.u.o.1.s r _ (.j.j./.j.j.d.:XfXmX8Xz.d.~.j.0X",
"}.k.G.l.l.D.l.l.L.l.L.l.l.*.s a k.^.(.F.k.G.V.l.l.k.F.F.l.F.k.l.V.~.l.t.[ n.F.l.L.L.F.p.o.1.a p >.`./.l.V.F.k.F.`.wXrX:Xk.F.l.j.aX",
"R...5.2...2.2.c.=.=.5.y.u.) v a a.L.F.c.=.N.X.=.2.2.2.N.2.5.2.2.o.o.[ 2.....c.[ =.=.=.=.@.X.N s #.).^.r.[ ..=...2.5...c...2.+.{ %X",
"M.O.c.o.o.[ [ o.c.o.2.c.+.k p j k.).F.y.o.c.+.c.[ o.o.c.o.v.o.o.c.[ [ c.c.N.2.+.c.+.=.=.+.1.g u &./.^.f.o.y.o.' c.y.[ y.c.o.o.o.E.",
"<.k B k k h k ) h h k z k j u j $.&._ ) h z x h h h k z k z k h h k k h h h ) h B k g k k l j a A *.#.` k k ) h k z k B k h h h I.",
"q $ > > # @ # # : # 7 # ; 3 u p + # > ; > 6 @ # # # ; # # # # # O # * % O # 5 + 6 # # # O 1 v v 9 # @ @ # @ # - > > > > O # # O E ",
"0 % 1 ; % # , 1 1 % = % ; 2 e j & , ; , % 8 1 * + 1 1 1 + 1 * + 1 # * % * * 8 % , % % 1 % , a i i , : , % % * + , , + 2 , % % + Q ",
"%X|.#X|.@X@X@X|.@X@X#X#X}.#X X+X#X}.#X}.}.#X}.|. X$X Xg.a.*.2 2 e.,X|.}.@X$X@X|.#X#X|.#X$X X#X#X X|.|.#X$X#X#X.X#X$X#XJ.;.b.f & ! ",
"AXgXMXmXMXgXBXMXNXmXMXNXNXNXBXnXmXmXSXmXmXNXmXmXMXMXfX*X^.n.j e .XnXnXBXVXMXNXMXVXmXmXmXnXNXMXBXSXNXmXNXnXMXmXNXNXBXBXwX^.F.) e ! ",
"bXnXkXrXtXtXpXtXiXrXiXtXtXiXrXtXtXpXtXtXtXtXtXrXtXrXtXz.z.g.d 2 {.NXlXtXrXiXpXtXtXtXiXrXrXiXtXrXiXiXiXpXtX4X3XyXuXiX4X>X^.F.B u ^ ",
"cXfXrXK.(.).).).).).).).).(.).).).G.`.).G.`.`.).).)._.).^.g.b u E.mXiX_.)._.`.(._.).'.).).).).(.).(._.^.^.G.i.c.H.G.*XK.z.G.B = ^ ",
"AXBXtXF.l.~.~.~.^.j.).^.~.~.l.~.~.l.~.~.~.^.~.l.^.k.^.^.(.b.b u {.MXnX^.x.^.F.j.~.l.~.z.l.^.z.z.z.z.l.l.~.k.O.] p.x.^.F.^.z.z w ^ ",
"uX1X:Xs.f.s.f.s.k.p.k.s.p.s.s.n.s.s.D.s.p.D.s.s.f.s.s.s.s.-.a < C.3X>Xx.p.s.B.s.k.s.s.s.s.s.k.s.d.s.d.f.d.s.o.+.y.p.k.B.p.f.x u ! ",
"+Xj.D...o.[ [ [ [ [ +...[ o.o.[ [ [ =.=.[ 2...[ ' ..+.y.' *.a u i.l.D.O.[ @.c.[ c.[ [ [ ....[ [ 2.[ [ [ [ [ [ [ +.N.o.c.o.o.h p ! ",
"+X!.D.+.[ =.+.2.c.[ c.c.+.+...+.+.o.+.c.o.c.+.[ o.2...2.[  .b p r.^.K.O.o.c.2.[ c...+.+.o.c.c.[ c.=.[ y.[ +...=.=.N.[ 3.....h w ^ ",
"I l f f a i u f d a a f i i u s a p d a u m a a i a b m u n d p l x l a i d a u a d e a a a b j a i p a a u a a a f e m s p a e I.",
"q # - O $ O @ O :   > @ O + % O % O + O O # O O - + O + o & u a % O O O O O + O ; O # # O + @ ; 1 o # O O $ # o @ @ O > o o & e I.",
"H d n n n 3 d m m s G 2 s 4 , 1 s n s n n n s s n 0 n n s d B z G s s 3 0 n n v s 3 v v s n 6 > 8 n n n s 0 v n G n 0 G s s J d Y.",
"vX0XqXqXyXqXrXqXyXiX2Xk.F.$.i a }.yXuXrXrXrXrXrXyXuXuXuXyXuXuXrX2X9XyXrXrXuXrXrXrXrXrX.Xk.B.z w 9.uXqXrXrXqXrXrXrXrXrXrXrXrXtXwXFX",
"AXfXNXnXgXnXnXBXlXNXpX~.).*.p v >XVXmXmXmXmXmXmXnXNXkXmXkXjXmXnXjXmXmXmXnXmXnXmXNXmXnX*Xx.B.N = :.VXNXnXnXnXmXnXNXmXVXmXjXkXVXnXGX",
"zX8XyXrXeXwXrXyXtX3X6XF.F.*.a j  XyX8XrXwXwXwXwX3X3XrXrXwXtXzXiXiXwXwXwXwXrXrXwXrXeXwX;X).H.l s e.iXwXyXwXwXtX8XuX7X6X9XyXwXrX2XFX",
";Xj.G.x.~.z.j.~.^.j.B.c.[ h 2 i h.F.~.~.l.z.z.l.(.~.(.~.l.:XfXVX-Xz.j.~.l.(.).l.G.~.l.F.^.B.f a >.~.~.l.~.l.^.(.H.[ =.p.F./.~.j.0X",
":X~.).j.~.F.^.~.).^.D.y.r.` u a a.^./.z.z.).(.z.z.z.).G.l.-XmXmX=Xj.l.).F.~.).l.).^.~.~./.k.f a <.~.!.z.~.~.x.).V.o.o.s.).l.j.l.aX",
"E.c.B.v.u.p.v.u.n.u.v.o.[ ) e a p.^./.s.v.p.u.u.u.u.t.u.u.H.L.L.p.B.v.u.t.n.u.u.n.v.r.a.u.b.a p $.(.!.B.v.t.f.n.N.=.' b.u.u.u.t.%X",
"m.' +.o.[ [ [ o.-.[ c.+.+.) r p a.G.F.y...2.+.[ [ [ +.c...[ [ { [ [ o.[ ' c.[ [ =.+.[ [ o.*.a r #.).^.p...] [ ..y.y.[ N.2. ...{ R.",
"m.] ..=.] ' ] [ ..{ [ [ ] ` i g a.k.k.' ] 2.X. .......2. ...2.] =.] ..*.=.1. .=.2.X.X. .[ _ f e %.k.l.r._  .[ [ ] [ ] 2.] ] =.{ W.",
"G = 2 p 2 w 2 p p = v 4 p p p i s a s 2 2 2 2 2 u 2 u 2 2 r p r p = u = 2 2 = u 2 w = 2 r s a j d i u u = c p u p v r v < 2 v p Q ",
"q   O O + @ O # @   :   X * p r # O @ # @ O O O   @ : - # * # # @ @ O O O @ @ O O O O   X O 2 e 2 O O   @ o O   @ @ O : O > 7 7 / ",
"I.J P P K K J I P I <.K K ,.7.,.#.K I K A P K B I I I x f d 4 8 a P A K P I P K P P K I K I <.7.,.L K J D K K U L L L J l U H Z ( ",
"AXiXjXkXjXjXkXhXkXuXhXfXiXdXgXtXfXiXzXmXdXmXVXiX4XgXfX*XG.C.j p .XzXtXjXiXlXkXiXkXjXfXfXiXnXjXiXjXlXiXfXkXtXmXsXkXkXlX:Xz.D.7.F oX",
"AXiXmXmXjXnXjXlXVXkXNXnXlXdXBXjXnXrXzXmXjXkXlXjXlXjXiX^.z.p.g r J.VXtXnXnXmXkXkXmXkXjXjXjXmXnXmXVXlXfXdXkXtXjXjXkXxXAX<X!.D.<.n oX",
"0X:X<X-X1X-X:X:X}.F.`.:X-X-X-X:X:X-X<X<X:X-X1X:X=X=X:X).!.C.< % :.-X:X:X&X>X7X-X>X:X-X-X-X<X-X:X>X:X:X-X-X:X=X-X9XyXeX5XR.u.| m oX",
"}.j.~.F.F.F.l.F.c.{ u.L.z.x.j.l.l.j.l.l.l.^.l.l.j.z.^.(./.7.> : &./.l.l.!./.l.j.).j.~.j.l.~.j.l.z.~.j.j.j.l.j.(.;XE.).S.] [ N m ^ ",
":X!.(.F.l.l.x.l.N.[ u.(.(.j.~.~.F.F.).F.F.).F.(.l.k.z.F./.3.% + $./.!.l.l.K.G.z.).F.l.l.l.(.F.F.G.G.F.F.F.D.G.}.:X;X).g.*.[ V & ^ ",
";XV.F.y.u.y.y.u.=.' =.c.y.r.y.o.y.r.y.c.y.v.y.y.u.y.y.y.a.$.+ @ $.).^.u.y.v.y.y.u.y.y.y.y.y.v.y.v.y.y.y.r.y.n.M.R.b.y.=.] [ h u ! ",
">Xz.D.=...[ 2...y...c.o.[ y.@.[ [ [ =.=.=.c.=.[ [ =.o.y.[ } * # $.z.~.a.[ 2.[ 2.c.[ =.[ [ c.y.[ y.y.[ [ [ =.c.m.Q.X...N.N.6.K d oX",
"S.h.i.$._ ] ]  . . . . ._ _ _ } ] ] 1. . . . .} _ } X.>.| | 9 % *.g.n.] } } } _  .]  . .]  . .] 1.} ] } _ ] 4.7.7.7.6.7.4.T.W m oX",
"G * 4 # 8 % ; 1 4 % 1 2 , , , , 1 1 4 1 ; 8 1 1 1 8 * 1 , v p a , , 2 % # 2 1 * 8 1 1 1 ; 8 1 1 4 1 1 * 1 * 8 q Z C q C n n N H oX",
"C o % # * + + # * + # * O % o # o % + + + # + o ; + % + O 8 u j = ; # + + + + % % % o o + % o % # % + + + O ; 6 M q q Z 4 8 p u ^ "
};
